<svg preserveAspectRatio="xMidYMid meet" width="100%" height="100%" overflow="visible" style="display: block;" viewBox="-6 -2 80 24" fill="none" xmlns="http://www.w3.org/2000/svg">
<g id="NMDC LTS 3" clip-path="url(#clip0_0_168)">
<path id="Vector" d="M13.5447 0.127013C13.5601 0.132902 13.5728 0.138829 13.5861 0.148631C13.5912 0.152393 13.5912 0.152393 13.5964 0.156232C13.6001 0.15894 13.6037 0.161647 13.6075 0.164436C13.6154 0.170225 13.6233 0.176014 13.6312 0.181801C13.6352 0.184763 13.6392 0.187725 13.6433 0.190776C13.6619 0.204396 13.6805 0.217867 13.6992 0.231345C13.7065 0.23663 13.7137 0.241917 13.721 0.247204C13.7247 0.249823 13.7283 0.252442 13.732 0.25514C13.743 0.263131 13.754 0.271132 13.765 0.279134C13.8006 0.304966 13.8362 0.330682 13.8721 0.35609C13.9117 0.384128 13.951 0.412556 13.9902 0.44107C14.0085 0.454341 14.0267 0.467587 14.045 0.480835C14.067 0.496752 14.089 0.512674 14.1109 0.528624C14.1465 0.554455 14.1821 0.580172 14.218 0.60558C14.2576 0.633618 14.2968 0.662045 14.3361 0.69056C14.3543 0.703831 14.3726 0.717077 14.3909 0.730324C14.4129 0.746241 14.4348 0.762164 14.4568 0.778114C14.4924 0.803945 14.528 0.829661 14.5639 0.855069C14.6034 0.883107 14.6427 0.911535 14.682 0.940049C14.7002 0.953321 14.7185 0.966567 14.7368 0.979814C14.7588 0.995731 14.7807 1.01165 14.8027 1.0276C14.8382 1.05343 14.8739 1.07915 14.9097 1.10456C14.9493 1.1326 14.9886 1.16102 15.0278 1.18954C15.0461 1.20281 15.0644 1.21606 15.0827 1.2293C15.1046 1.24522 15.1266 1.26114 15.1486 1.27709C15.1841 1.30292 15.2197 1.32864 15.2556 1.35405C15.3026 1.38735 15.3492 1.4212 15.3958 1.45507C15.435 1.48358 15.4743 1.512 15.5139 1.54003C15.5535 1.56807 15.5927 1.5965 15.632 1.62501C15.6502 1.63828 15.6685 1.65153 15.6868 1.66478C15.7088 1.68069 15.7307 1.69662 15.7527 1.71257C15.7882 1.7384 15.8239 1.76411 15.8598 1.78952C15.8993 1.81756 15.9386 1.84599 15.9779 1.8745C15.9961 1.88777 16.0144 1.90102 16.0327 1.91427C16.0547 1.93018 16.0766 1.94611 16.0986 1.96206C16.1341 1.98789 16.1698 2.0136 16.2056 2.03901C16.2452 2.06705 16.2845 2.09548 16.3237 2.12399C16.342 2.13726 16.3603 2.15051 16.3786 2.16376C16.4005 2.17967 16.4225 2.1956 16.4444 2.21155C16.48 2.23738 16.5156 2.26309 16.5515 2.2885C16.5911 2.31654 16.6304 2.34497 16.6696 2.37348C16.6879 2.38675 16.7062 2.4 16.7245 2.41325C16.7464 2.42916 16.7684 2.44509 16.7903 2.46104C16.8259 2.48687 16.8615 2.51258 16.8974 2.53799C16.937 2.56603 16.9763 2.59446 17.0155 2.62297C17.0338 2.63624 17.052 2.64949 17.0703 2.66274C17.0923 2.67865 17.1143 2.69457 17.1362 2.71052C17.1718 2.73636 17.2074 2.76207 17.2433 2.78748C17.2829 2.81552 17.3221 2.84395 17.3614 2.87246C17.3796 2.88573 17.3979 2.89898 17.4162 2.91223C17.4382 2.92814 17.4601 2.94406 17.4821 2.96001C17.5176 2.98585 17.5533 3.01156 17.5892 3.03697C17.6287 3.06501 17.668 3.09344 17.7073 3.12195C17.7255 3.13522 17.7438 3.14847 17.7621 3.16172C17.7841 3.17763 17.806 3.19355 17.828 3.2095C17.8635 3.23534 17.8992 3.26105 17.935 3.28646C17.982 3.31976 18.0286 3.35362 18.0752 3.38748C18.1144 3.41599 18.1537 3.44441 18.1933 3.47244C18.2329 3.50048 18.2722 3.52891 18.3114 3.55742C18.3297 3.57069 18.3479 3.58394 18.3662 3.59719C18.3882 3.6131 18.4102 3.62903 18.4321 3.64498C18.4677 3.67081 18.5033 3.69652 18.5392 3.72193C18.5788 3.74997 18.618 3.7784 18.6573 3.80691C18.6755 3.82018 18.6938 3.83343 18.7121 3.84668C18.7341 3.86259 18.756 3.87852 18.778 3.89447C18.8135 3.9203 18.8492 3.94601 18.885 3.97142C18.9246 3.99946 18.9639 4.02789 19.0031 4.0564C19.0214 4.06967 19.0397 4.08292 19.058 4.09617C19.08 4.11208 19.1019 4.12801 19.1239 4.14396C19.1594 4.16979 19.1951 4.1955 19.2309 4.22091C19.2705 4.24895 19.3098 4.27738 19.349 4.30589C19.3673 4.31916 19.3856 4.33241 19.4039 4.34566C19.4258 4.36157 19.4478 4.3775 19.4697 4.39345C19.5053 4.41928 19.5409 4.44499 19.5768 4.4704C19.6164 4.49844 19.6557 4.52687 19.6949 4.55538C19.7132 4.56865 19.7315 4.5819 19.7497 4.59515C19.7717 4.61106 19.7937 4.62699 19.8156 4.64294C19.8512 4.66877 19.8868 4.69448 19.9227 4.71989C19.9623 4.74793 20.0016 4.77636 20.0408 4.80487C20.0591 4.81814 20.0773 4.83139 20.0956 4.84464C20.1176 4.86055 20.1396 4.87648 20.1615 4.89243C20.1971 4.91826 20.2327 4.94397 20.2686 4.96938C20.3082 4.99742 20.3474 5.02585 20.3867 5.05436C20.4049 5.06763 20.4232 5.08088 20.4415 5.09413C20.4635 5.11004 20.4854 5.12597 20.5074 5.14192C20.5429 5.16775 20.5786 5.19346 20.6144 5.21887C20.6615 5.25217 20.708 5.28603 20.7546 5.31989C20.7938 5.3484 20.8331 5.37682 20.8727 5.40485C20.9123 5.43289 20.9516 5.46132 20.9908 5.48983C21.0091 5.50311 21.0274 5.51635 21.0456 5.5296C21.0676 5.54552 21.0896 5.56144 21.1115 5.57739C21.1471 5.60322 21.1827 5.62894 21.2186 5.65434C21.2582 5.68238 21.2975 5.71081 21.3367 5.73932C21.355 5.7526 21.3732 5.76584 21.3915 5.77909C21.4135 5.79501 21.4355 5.81093 21.4574 5.82688C21.493 5.85271 21.5286 5.87843 21.5645 5.90383C21.604 5.93187 21.6433 5.9603 21.6826 5.98881C21.7008 6.00209 21.7191 6.01533 21.7374 6.02858C21.7594 6.0445 21.7813 6.06042 21.8033 6.07637C21.8388 6.1022 21.8745 6.12792 21.9103 6.15332C21.9499 6.18136 21.9892 6.20979 22.0284 6.2383C22.0467 6.25158 22.065 6.26482 22.0833 6.27807C22.1053 6.29399 22.1272 6.30991 22.1492 6.32586C22.1847 6.35169 22.2204 6.37741 22.2562 6.40281C22.2958 6.43085 22.3351 6.45928 22.3743 6.48779C22.3926 6.50106 22.4109 6.51431 22.4292 6.52756C22.4511 6.54347 22.4731 6.5594 22.495 6.57535C22.5306 6.60118 22.5662 6.6269 22.6021 6.6523C22.6417 6.68034 22.681 6.70877 22.7202 6.73728C22.7385 6.75055 22.7568 6.7638 22.775 6.77705C22.797 6.79296 22.819 6.80889 22.8409 6.82484C22.8765 6.85067 22.9121 6.87638 22.948 6.90179C22.9876 6.92983 23.0269 6.95826 23.0661 6.98677C23.0844 7.00004 23.1026 7.01329 23.1209 7.02654C23.1429 7.04245 23.1649 7.05838 23.1868 7.07433C23.2224 7.10016 23.258 7.12587 23.2939 7.15128C23.3334 7.17932 23.3727 7.20775 23.412 7.23626C23.4302 7.24953 23.4485 7.26278 23.4668 7.27603C23.4888 7.29194 23.5107 7.30787 23.5327 7.32382C23.5682 7.34965 23.6039 7.37536 23.6397 7.40077C23.6868 7.43407 23.7333 7.46793 23.7799 7.5018C23.8191 7.5303 23.8584 7.55872 23.898 7.58676C23.9376 7.61479 23.9769 7.64322 24.0161 7.67174C24.0344 7.68501 24.0527 7.69825 24.0709 7.7115C24.0929 7.72742 24.1149 7.74334 24.1368 7.75929C24.1724 7.78512 24.208 7.81084 24.2439 7.83624C24.2835 7.86428 24.3228 7.89271 24.362 7.92123C24.3802 7.9345 24.3985 7.94774 24.4168 7.96099C24.4388 7.97691 24.4608 7.99283 24.4827 8.00878C24.5192 8.0353 24.5558 8.06166 24.5926 8.08772C24.6198 8.10693 24.6466 8.12644 24.6728 8.14697C24.7009 8.12887 24.7282 8.11 24.7552 8.09027C24.7629 8.08465 24.7707 8.07902 24.7784 8.0734C24.7823 8.07055 24.7862 8.06771 24.7902 8.06477C24.8087 8.05131 24.8272 8.0379 24.8457 8.0245C24.8677 8.00858 24.8896 7.99266 24.9116 7.97671C24.9506 7.9484 24.9896 7.9203 25.0289 7.89246C25.0651 7.86683 25.1009 7.84081 25.1368 7.81477C25.1587 7.79885 25.1806 7.78297 25.2025 7.76708C25.2209 7.7538 25.2392 7.74052 25.2575 7.72722C25.2964 7.69891 25.3355 7.67081 25.3748 7.64297C25.411 7.61734 25.4468 7.59132 25.4826 7.56528C25.5045 7.54936 25.5265 7.53348 25.5484 7.51759C25.5667 7.50431 25.585 7.49103 25.6034 7.47773C25.6423 7.44942 25.6814 7.42132 25.7207 7.39348C25.7568 7.36785 25.7927 7.34183 25.8285 7.31579C25.8504 7.29987 25.8724 7.28399 25.8943 7.2681C25.9126 7.25482 25.9309 7.24154 25.9492 7.22824C25.9882 7.19993 26.0273 7.17183 26.0666 7.14399C26.1064 7.11573 26.1459 7.08701 26.1854 7.05829C26.2317 7.02463 26.2781 6.9911 26.3248 6.95801C26.361 6.93238 26.3968 6.90636 26.4326 6.88032C26.4546 6.8644 26.4765 6.84852 26.4984 6.83263C26.5168 6.81935 26.5351 6.80607 26.5534 6.79276C26.5923 6.76446 26.6314 6.73636 26.6707 6.70852C26.7069 6.68289 26.7427 6.65687 26.7785 6.63083C26.8004 6.61491 26.8224 6.59903 26.8443 6.58314C26.8626 6.56986 26.8809 6.55658 26.8992 6.54328C26.9382 6.51497 26.9773 6.48687 27.0166 6.45903C27.0527 6.4334 27.0886 6.40738 27.1244 6.38134C27.1463 6.36542 27.1683 6.34954 27.1902 6.33365C27.2085 6.32037 27.2268 6.30709 27.2451 6.29379C27.2841 6.26548 27.3232 6.23738 27.3625 6.20954C27.3986 6.18391 27.4345 6.15789 27.4703 6.13185C27.4922 6.11593 27.5141 6.10005 27.5361 6.08416C27.5544 6.07088 27.5727 6.0576 27.591 6.0443C27.63 6.01599 27.6691 5.98789 27.7084 5.96005C27.7445 5.93442 27.7803 5.9084 27.8162 5.88236C27.8381 5.86644 27.86 5.85056 27.882 5.83467C27.9003 5.82139 27.9186 5.80811 27.9369 5.79481C27.9758 5.7665 28.0149 5.7384 28.0542 5.71056C28.0904 5.68493 28.1262 5.65891 28.162 5.63287C28.184 5.61695 28.2059 5.60107 28.2278 5.58518C28.2462 5.5719 28.2645 5.55862 28.2828 5.54532C28.3217 5.51701 28.3608 5.48891 28.4001 5.46107C28.4363 5.43544 28.4721 5.40942 28.5079 5.38338C28.5298 5.36746 28.5518 5.35158 28.5737 5.33569C28.592 5.32241 28.6103 5.30913 28.6286 5.29583C28.6676 5.26752 28.7067 5.23942 28.746 5.21158C28.7858 5.18332 28.8253 5.1546 28.8648 5.12588C28.9111 5.09222 28.9575 5.05869 29.0043 5.02559C29.0404 4.99997 29.0762 4.97395 29.1121 4.94791C29.134 4.93199 29.1559 4.91611 29.1778 4.90022C29.1962 4.88694 29.2145 4.87366 29.2328 4.86035C29.2717 4.83205 29.3108 4.80394 29.3501 4.7761C29.3863 4.75048 29.4221 4.72446 29.4579 4.69842C29.4799 4.6825 29.5018 4.66662 29.5237 4.65073C29.542 4.63745 29.5604 4.62417 29.5787 4.61086C29.6176 4.58256 29.6567 4.55445 29.696 4.52661C29.7322 4.50099 29.768 4.47497 29.8038 4.44893C29.8257 4.43301 29.8477 4.41713 29.8696 4.40124C29.8879 4.38796 29.9062 4.37468 29.9245 4.36137C29.9635 4.33307 30.0026 4.30496 30.0419 4.27712C30.078 4.2515 30.1139 4.22548 30.1497 4.19944C30.1716 4.18352 30.1936 4.16764 30.2155 4.15175C30.2338 4.13847 30.2521 4.12519 30.2704 4.11188C30.3094 4.08358 30.3485 4.05548 30.3878 4.02764C30.4239 4.00201 30.4598 3.97599 30.4956 3.94995C30.5175 3.93403 30.5394 3.91815 30.5614 3.90226C30.5797 3.88898 30.598 3.8757 30.6163 3.86239C30.6553 3.83409 30.6944 3.80599 30.7337 3.77815C30.7698 3.75252 30.8056 3.7265 30.8415 3.70046C30.8634 3.68454 30.8853 3.66866 30.9072 3.65277C30.9256 3.63949 30.9439 3.62621 30.9622 3.61291C31.0011 3.5846 31.0402 3.5565 31.0795 3.52866C31.1157 3.50303 31.1515 3.47701 31.1873 3.45097C31.2093 3.43505 31.2312 3.41917 31.2531 3.40328C31.2714 3.39 31.2898 3.37672 31.3081 3.36342C31.347 3.33511 31.3861 3.30701 31.4254 3.27917C31.4653 3.25091 31.5048 3.22218 31.5443 3.19347C31.5906 3.1598 31.637 3.12628 31.6837 3.09318C31.7198 3.06756 31.7557 3.04154 31.7915 3.0155C31.8134 2.99958 31.8353 2.98369 31.8573 2.9678C31.8756 2.95453 31.8939 2.94124 31.9122 2.92794C31.9512 2.89964 31.9903 2.87153 32.0296 2.84369C32.0657 2.81807 32.1015 2.79205 32.1374 2.76601C32.1593 2.75009 32.1812 2.7342 32.2031 2.71831C32.2215 2.70504 32.2398 2.69175 32.2581 2.67845C32.297 2.65015 32.3361 2.62204 32.3754 2.5942C32.4116 2.56858 32.4474 2.54256 32.4832 2.51652C32.5052 2.5006 32.5271 2.48472 32.549 2.46883C32.5673 2.45555 32.5857 2.44227 32.604 2.42896C32.6429 2.40066 32.682 2.37255 32.7213 2.34471C32.7575 2.31909 32.7933 2.29307 32.8291 2.26703C32.851 2.25111 32.873 2.23523 32.8949 2.21934C32.9132 2.20606 32.9315 2.19278 32.9498 2.17947C32.9888 2.15117 33.0279 2.12306 33.0672 2.09522C33.1033 2.0696 33.1392 2.04358 33.175 2.01754C33.1969 2.00162 33.2189 1.98574 33.2408 1.96985C33.2591 1.95657 33.2774 1.94329 33.2957 1.92998C33.3347 1.90168 33.3738 1.87357 33.4131 1.84573C33.4492 1.82011 33.4851 1.79409 33.5209 1.76805C33.5428 1.75213 33.5647 1.73625 33.5867 1.72036C33.605 1.70708 33.6233 1.6938 33.6416 1.68049C33.6806 1.65219 33.7197 1.62408 33.759 1.59624C33.7951 1.57062 33.8309 1.5446 33.8668 1.51856C33.8887 1.50264 33.9106 1.48676 33.9325 1.47087C33.9509 1.45759 33.9692 1.44431 33.9875 1.431C34.0264 1.4027 34.0655 1.37459 34.1048 1.34675C34.1447 1.3185 34.1842 1.28977 34.2237 1.26106C34.27 1.22739 34.3164 1.19387 34.3631 1.16077C34.3992 1.13515 34.4351 1.10913 34.4709 1.08309C34.4928 1.06717 34.5147 1.05128 34.5367 1.03539C34.555 1.02212 34.5733 1.00883 34.5916 0.995531C34.6306 0.967228 34.6697 0.939122 34.709 0.911282C34.7451 0.885656 34.781 0.859637 34.8168 0.833596C34.8387 0.817677 34.8606 0.801794 34.8826 0.785904C34.9009 0.772628 34.9192 0.759344 34.9375 0.746042C34.9765 0.717738 35.0156 0.689632 35.0549 0.661792C35.091 0.636166 35.1268 0.610147 35.1627 0.584106C35.1846 0.568187 35.2065 0.552304 35.2284 0.536414C35.2468 0.523138 35.2651 0.509854 35.2834 0.496552C35.3223 0.468248 35.3614 0.440142 35.4007 0.412303C35.4369 0.386676 35.4727 0.360657 35.5085 0.334616C35.5305 0.318698 35.5524 0.302814 35.5743 0.286924C35.5926 0.273648 35.611 0.260364 35.6293 0.247062C35.6697 0.217666 35.7103 0.188455 35.7511 0.159554C35.7544 0.157265 35.7576 0.154976 35.7609 0.152618C35.7639 0.150516 35.7669 0.148415 35.77 0.14625C35.7763 0.141684 35.7826 0.136951 35.7888 0.132169C35.7963 0.127013 35.7963 0.127013 35.8055 0.127013C35.8055 4.24509 35.8055 8.36317 35.8055 12.606C34.1914 12.6084 32.5773 12.6106 30.9632 12.6106C30.9609 10.4101 30.9609 10.4101 30.9586 8.16512C30.9296 8.18607 30.9007 8.20703 30.8709 8.22862C30.8384 8.25159 30.8384 8.25159 30.8229 8.26243C30.8038 8.27573 30.7849 8.28918 30.766 8.30262C30.7625 8.30511 30.759 8.30759 30.7554 8.31015C30.7483 8.31522 30.7412 8.32029 30.734 8.32537C30.7167 8.33773 30.6993 8.35009 30.6819 8.36244C30.6749 8.36736 30.668 8.37227 30.6611 8.37718C30.6473 8.38701 30.6334 8.39684 30.6196 8.40667C30.6145 8.41032 30.6145 8.41032 30.6092 8.41404C30.6023 8.41895 30.5954 8.42385 30.5885 8.42875C30.571 8.4412 30.5535 8.45366 30.5359 8.46612C30.5021 8.49017 30.4683 8.51416 30.4343 8.53799C30.4019 8.56072 30.3697 8.58367 30.3374 8.60661C30.32 8.61897 30.3026 8.63133 30.2853 8.64368C30.2783 8.6486 30.2714 8.65351 30.2645 8.65843C30.223 8.68791 30.1815 8.7174 30.14 8.74688C30.1348 8.75053 30.1348 8.75053 30.1296 8.75426C30.1227 8.75916 30.1158 8.76406 30.1089 8.76897C30.0914 8.78142 30.0738 8.79387 30.0563 8.80633C30.0225 8.83038 29.9887 8.85437 29.9547 8.8782C29.9223 8.90093 29.8901 8.92389 29.8578 8.94682C29.8404 8.95919 29.823 8.97154 29.8056 8.9839C29.7987 8.98881 29.7918 8.99373 29.7849 8.99864C29.7434 9.02813 29.7019 9.05761 29.6604 9.0871C29.6552 9.09075 29.6552 9.09075 29.65 9.09447C29.6431 9.09937 29.6362 9.10428 29.6293 9.10918C29.6117 9.12163 29.5942 9.13408 29.5767 9.14654C29.5429 9.17059 29.509 9.19459 29.4751 9.21841C29.4427 9.24114 29.4104 9.2641 29.3782 9.28704C29.3608 9.2994 29.3434 9.31176 29.326 9.32411C29.3191 9.32903 29.3122 9.33394 29.3053 9.33885C29.2638 9.36834 29.2222 9.39782 29.1807 9.42731C29.1773 9.42974 29.1739 9.43218 29.1704 9.43468C29.1635 9.43959 29.1566 9.44449 29.1497 9.44939C29.1321 9.46184 29.1146 9.4743 29.0971 9.48676C29.0633 9.51081 29.0294 9.5348 28.9954 9.55863C28.963 9.58136 28.9308 9.60431 28.8986 9.62725C28.8812 9.63961 28.8638 9.65197 28.8464 9.66432C28.8395 9.66924 28.8326 9.67415 28.8256 9.67907C28.7841 9.70855 28.7426 9.73804 28.7011 9.76752C28.6977 9.76996 28.6943 9.77239 28.6907 9.7749C28.6838 9.7798 28.6769 9.7847 28.67 9.78961C28.6525 9.80206 28.635 9.81451 28.6175 9.82697C28.5836 9.85102 28.5498 9.87501 28.5158 9.89884C28.4834 9.92157 28.4512 9.94453 28.4189 9.96746C28.4016 9.97983 28.3842 9.99218 28.3668 10.0045C28.3599 10.0095 28.3529 10.0144 28.346 10.0193C28.3045 10.0488 28.263 10.0783 28.2215 10.1077C28.2181 10.1102 28.2146 10.1126 28.2111 10.1151C28.2042 10.12 28.1973 10.1249 28.1904 10.1298C28.1729 10.1423 28.1554 10.1547 28.1378 10.1672C28.104 10.1912 28.0702 10.2152 28.0362 10.2391C28.0038 10.2618 27.9716 10.2847 27.9393 10.3077C27.9219 10.32 27.9045 10.3324 27.8871 10.3448C27.8802 10.3497 27.8733 10.3546 27.8664 10.3595C27.8249 10.389 27.7834 10.4185 27.7419 10.4479C27.7385 10.4504 27.735 10.4528 27.7315 10.4553C27.7246 10.4602 27.7177 10.4651 27.7108 10.47C27.6933 10.4825 27.6757 10.4949 27.6582 10.5074C27.6244 10.5314 27.5906 10.5554 27.5566 10.5793C27.5242 10.602 27.492 10.625 27.4597 10.6479C27.4423 10.6603 27.4249 10.6726 27.4075 10.685C27.4006 10.6899 27.3937 10.6948 27.3868 10.6997C27.3245 10.7439 27.3245 10.7439 27.2623 10.7882C27.2588 10.7906 27.2554 10.793 27.2519 10.7955C27.245 10.8004 27.2381 10.8053 27.2312 10.8102C27.2136 10.8227 27.1961 10.8351 27.1786 10.8476C27.1448 10.8717 27.1109 10.8957 27.077 10.9195C27.0446 10.9422 27.0123 10.9652 26.9801 10.9881C26.9627 11.0005 26.9453 11.0128 26.9279 11.0252C26.921 11.0301 26.9141 11.035 26.9072 11.0399C26.8449 11.0841 26.8449 11.0841 26.7826 11.1284C26.7792 11.1308 26.7758 11.1332 26.7723 11.1357C26.7654 11.1407 26.7585 11.1456 26.7516 11.1505C26.734 11.1629 26.7165 11.1754 26.699 11.1878C26.6652 11.2119 26.6313 11.2359 26.5973 11.2597C26.5649 11.2824 26.5327 11.3054 26.5005 11.3283C26.4831 11.3407 26.4657 11.353 26.4483 11.3654C26.4414 11.3703 26.4345 11.3752 26.4275 11.3801C26.386 11.4096 26.3445 11.4391 26.303 11.4686C26.2996 11.471 26.2962 11.4735 26.2926 11.476C26.2857 11.4809 26.2788 11.4858 26.2719 11.4907C26.2544 11.5031 26.2369 11.5156 26.2194 11.528C26.1855 11.5521 26.1517 11.5761 26.1177 11.5999C26.0853 11.6226 26.0531 11.6456 26.0208 11.6685C26.0035 11.6809 25.9861 11.6932 25.9687 11.7056C25.9618 11.7105 25.9548 11.7154 25.9479 11.7203C25.9064 11.7498 25.8649 11.7793 25.8234 11.8088C25.82 11.8112 25.8165 11.8137 25.813 11.8162C25.8061 11.8211 25.7992 11.826 25.7923 11.8309C25.7748 11.8433 25.7573 11.8558 25.7397 11.8683C25.7059 11.8923 25.6721 11.9163 25.6381 11.9401C25.6057 11.9628 25.5735 11.9858 25.5412 12.0087C25.5238 12.0211 25.5064 12.0335 25.489 12.0458C25.4821 12.0507 25.4752 12.0556 25.4683 12.0606C25.4268 12.09 25.3853 12.1195 25.3438 12.149C25.3404 12.1514 25.3369 12.1539 25.3334 12.1564C25.3265 12.1613 25.3196 12.1662 25.3127 12.1711C25.2952 12.1835 25.2776 12.196 25.2601 12.2085C25.2263 12.2325 25.1925 12.2565 25.1585 12.2803C25.1261 12.3031 25.0939 12.326 25.0616 12.349C25.0442 12.3613 25.0268 12.3737 25.0094 12.386C25.0025 12.3909 24.9956 12.3959 24.9887 12.4008C24.9472 12.4303 24.9057 12.4597 24.8642 12.4892C24.8607 12.4917 24.8573 12.4941 24.8538 12.4966C24.8469 12.5015 24.84 12.5064 24.8331 12.5113C24.8153 12.5239 24.7975 12.5366 24.7797 12.5493C24.776 12.5519 24.7724 12.5545 24.7686 12.5572C24.7617 12.5622 24.7547 12.5671 24.7478 12.5721C24.7247 12.5885 24.7012 12.6042 24.6774 12.6196C24.6524 12.6062 24.6297 12.5911 24.6068 12.5746C24.5994 12.5693 24.592 12.564 24.5846 12.5587C24.5809 12.556 24.5771 12.5533 24.5733 12.5506C24.5558 12.538 24.5382 12.5255 24.5206 12.513C24.5137 12.5081 24.5067 12.5032 24.4998 12.4983C24.4964 12.4959 24.493 12.4934 24.4895 12.4909C23.7942 11.9971 23.7942 11.9971 23.7839 11.9897C23.777 11.9848 23.7701 11.9799 23.7631 11.975C23.7456 11.9625 23.7281 11.9501 23.7106 11.9376C23.6793 11.9154 23.6481 11.8932 23.6167 11.8712C23.5817 11.8466 23.5469 11.8219 23.5121 11.7971C23.4947 11.7847 23.4773 11.7724 23.4599 11.76C23.453 11.7551 23.4461 11.7502 23.4391 11.7453C23.4357 11.7429 23.4323 11.7404 23.4288 11.7379C23.3146 11.6568 23.3146 11.6568 23.3042 11.6495C23.2973 11.6446 23.2904 11.6397 23.2835 11.6348C23.266 11.6223 23.2485 11.6099 23.231 11.5974C23.1997 11.5752 23.1685 11.553 23.1371 11.531C23.1021 11.5064 23.0673 11.4817 23.0324 11.4569C23.0151 11.4445 22.9977 11.4322 22.9803 11.4198C22.9733 11.4149 22.9664 11.41 22.9595 11.4051C22.9544 11.4014 22.9544 11.4014 22.9491 11.3977C22.835 11.3166 22.835 11.3166 22.8246 11.3093C22.8177 11.3043 22.8108 11.2994 22.8039 11.2945C22.7864 11.2821 22.7689 11.2696 22.7513 11.2572C22.7201 11.235 22.6888 11.2128 22.6574 11.1907C22.6225 11.1662 22.5876 11.1415 22.5528 11.1167C22.5354 11.1043 22.518 11.092 22.5006 11.0796C22.4937 11.0747 22.4868 11.0698 22.4799 11.0649C22.4748 11.0612 22.4748 11.0612 22.4695 11.0575C22.3554 10.9764 22.3554 10.9764 22.345 10.969C22.3381 10.9641 22.3312 10.9592 22.3243 10.9543C22.3068 10.9419 22.2892 10.9294 22.2717 10.917C22.2405 10.8947 22.2092 10.8725 22.1778 10.8505C22.1428 10.826 22.108 10.8012 22.0732 10.7765C22.0558 10.7641 22.0384 10.7518 22.021 10.7394C22.0141 10.7345 22.0072 10.7296 22.0003 10.7247C21.9951 10.721 21.9951 10.721 21.9899 10.7173C21.8758 10.6362 21.8758 10.6362 21.8654 10.6288C21.8585 10.6239 21.8516 10.619 21.8447 10.6141C21.8271 10.6017 21.8096 10.5892 21.7921 10.5768C21.7609 10.5545 21.7296 10.5323 21.6982 10.5103C21.6632 10.4858 21.6284 10.461 21.5936 10.4363C21.5762 10.4239 21.5588 10.4115 21.5414 10.3992C21.5345 10.3943 21.5276 10.3894 21.5207 10.3844C21.5155 10.3808 21.5155 10.3808 21.5103 10.3771C21.3961 10.296 21.3961 10.296 21.3858 10.2886C21.3789 10.2837 21.372 10.2788 21.365 10.2739C21.3475 10.2615 21.33 10.249 21.3125 10.2365C21.2812 10.2143 21.25 10.1921 21.2186 10.1701C21.1836 10.1456 21.1488 10.1208 21.114 10.096C21.0966 10.0837 21.0792 10.0713 21.0618 10.059C21.0549 10.0541 21.048 10.0491 21.041 10.0442C21.0359 10.0406 21.0359 10.0406 21.0307 10.0369C20.9165 9.95577 20.9165 9.95577 20.9061 9.9484C20.8992 9.9435 20.8923 9.93859 20.8854 9.93369C20.8679 9.92124 20.8504 9.90879 20.8329 9.89632C20.8016 9.87411 20.7704 9.85191 20.739 9.82989C20.704 9.80536 20.6692 9.7806 20.6343 9.75583C20.617 9.74347 20.5996 9.73111 20.5822 9.71876C20.5752 9.71384 20.5683 9.70893 20.5614 9.70402C20.5563 9.70037 20.5563 9.70037 20.551 9.69664C20.3539 9.55659 20.3539 9.55659 20.3435 9.54922C20.3366 9.54431 20.3297 9.53941 20.3228 9.53451C20.3053 9.52206 20.2877 9.5096 20.2702 9.49714C20.239 9.47492 20.2077 9.45272 20.1763 9.43071C20.1413 9.40618 20.1065 9.38142 20.0717 9.35665C20.0543 9.34428 20.0369 9.33193 20.0195 9.31957C20.0126 9.31466 20.0057 9.30975 19.9988 9.30483C19.9954 9.3024 19.9919 9.29997 19.9884 9.29746C19.8743 9.21638 19.8743 9.21638 19.8639 9.209C19.857 9.2041 19.8501 9.1992 19.8432 9.19429C19.8256 9.18184 19.8081 9.16939 19.7906 9.15693C19.7594 9.13471 19.7281 9.11251 19.6967 9.0905C19.6617 9.06597 19.6269 9.0412 19.5921 9.01644C19.5747 9.00407 19.5573 8.99172 19.5399 8.97936C19.533 8.97445 19.5261 8.96953 19.5192 8.96462C19.5157 8.96219 19.5123 8.95975 19.5088 8.95725C19.3946 8.87616 19.3946 8.87616 19.3843 8.86879C19.3774 8.86389 19.3705 8.85898 19.3636 8.85408C19.346 8.84163 19.3285 8.82918 19.311 8.81671C19.2797 8.7945 19.2485 8.7723 19.2171 8.75028C19.1821 8.72575 19.1473 8.70099 19.1125 8.67622C19.0951 8.66386 19.0777 8.6515 19.0603 8.63915C19.0534 8.63423 19.0465 8.62932 19.0395 8.62441C19.0361 8.62197 19.0327 8.61954 19.0292 8.61703C18.915 8.53595 18.915 8.53595 18.9046 8.52858C18.8977 8.52367 18.8908 8.51877 18.8839 8.51387C18.8664 8.50142 18.8489 8.48896 18.8314 8.4765C18.8001 8.45428 18.7689 8.43208 18.7375 8.41007C18.7025 8.38554 18.6677 8.36078 18.6329 8.33601C18.6155 8.32365 18.5981 8.31129 18.5807 8.29894C18.5738 8.29402 18.5668 8.28911 18.5599 8.28419C18.5565 8.28176 18.5531 8.27933 18.5495 8.27682C18.4354 8.19574 18.4354 8.19574 18.425 8.18836C18.4181 8.18346 18.4112 8.17856 18.4043 8.17365C18.3868 8.1612 18.3693 8.14875 18.3517 8.13629C18.3205 8.11407 18.2892 8.09187 18.2579 8.06986C18.2229 8.04533 18.188 8.02056 18.1532 7.9958C18.1358 7.98343 18.1184 7.97108 18.1011 7.95872C18.0941 7.95381 18.0872 7.94889 18.0803 7.94398C18.0769 7.94155 18.0735 7.93911 18.0699 7.93661C17.9558 7.85552 17.9558 7.85552 17.9454 7.84815C17.9385 7.84325 17.9316 7.83834 17.9247 7.83344C17.9072 7.82099 17.8896 7.80854 17.8721 7.79608C17.8409 7.77386 17.8096 7.75166 17.7782 7.72964C17.7432 7.70511 17.7084 7.68035 17.6736 7.65558C17.6562 7.64322 17.6388 7.63086 17.6214 7.61851C17.6145 7.61359 17.6076 7.60868 17.6007 7.60377C17.5973 7.60133 17.5938 7.5989 17.5903 7.59639C17.4762 7.51531 17.4762 7.51531 17.4658 7.50794C17.4589 7.50303 17.452 7.49813 17.4451 7.49323C17.4275 7.48078 17.41 7.46832 17.3925 7.45586C17.3613 7.43364 17.33 7.41144 17.2986 7.38943C17.2636 7.3649 17.2288 7.34014 17.194 7.31537C17.1766 7.30301 17.1592 7.29065 17.1418 7.2783C17.1349 7.27338 17.128 7.26847 17.1211 7.26355C17.1176 7.26112 17.1142 7.25869 17.1107 7.25618C16.9965 7.1751 16.9965 7.1751 16.9862 7.16772C16.9793 7.16282 16.9724 7.15792 16.9655 7.15301C16.9479 7.14056 16.9304 7.12811 16.9129 7.11565C16.8816 7.09343 16.8504 7.07123 16.819 7.04922C16.784 7.02469 16.7492 6.99992 16.7144 6.97516C16.697 6.96279 16.6796 6.95044 16.6622 6.93808C16.6553 6.93317 16.6484 6.92825 16.6414 6.92334C16.638 6.92091 16.6346 6.91847 16.6311 6.91597C16.5169 6.83488 16.5169 6.83488 16.5065 6.82751C16.4996 6.82261 16.4927 6.8177 16.4858 6.8128C16.4683 6.80035 16.4508 6.7879 16.4333 6.77544C16.402 6.75322 16.3708 6.73102 16.3394 6.70901C16.3044 6.68447 16.2696 6.65971 16.2348 6.63494C16.2174 6.62258 16.2 6.61022 16.1826 6.59787C16.1757 6.59295 16.1687 6.58804 16.1618 6.58313C16.1584 6.58069 16.155 6.57826 16.1514 6.57575C16.0373 6.49467 16.0373 6.49467 16.0269 6.4873C16.02 6.48239 16.0131 6.47749 16.0062 6.47259C15.9887 6.46014 15.9712 6.44768 15.9536 6.43522C15.9224 6.413 15.8911 6.3908 15.8598 6.36879C15.8248 6.34426 15.7899 6.3195 15.7551 6.29473C15.7377 6.28237 15.7203 6.27001 15.703 6.25766C15.696 6.25274 15.6891 6.24783 15.6822 6.24291C15.6788 6.24048 15.6754 6.23805 15.6718 6.23554C15.5577 6.15446 15.5577 6.15446 15.5473 6.14708C15.5404 6.14218 15.5335 6.13728 15.5266 6.13237C15.5091 6.11992 15.4915 6.10747 15.474 6.09501C15.4428 6.07279 15.4115 6.05059 15.3801 6.02858C15.3451 6.00405 15.3103 5.97928 15.2755 5.95452C15.2581 5.94215 15.2407 5.9298 15.2233 5.91744C15.2164 5.91253 15.2095 5.90761 15.2026 5.9027C15.1992 5.90027 15.1957 5.89783 15.1922 5.89533C15.0781 5.81424 15.0781 5.81424 15.0677 5.80687C15.0608 5.80197 15.0539 5.79706 15.047 5.79216C15.0294 5.77971 15.0119 5.76726 14.9944 5.7548C14.9632 5.73258 14.9319 5.71038 14.9005 5.68837C14.8655 5.66383 14.8307 5.63907 14.7959 5.6143C14.7785 5.60194 14.7611 5.58958 14.7437 5.57723C14.7368 5.57231 14.7299 5.5674 14.723 5.56249C14.7195 5.56005 14.7161 5.55762 14.7126 5.55512C14.5984 5.47403 14.5984 5.47403 14.5881 5.46666C14.5812 5.46175 14.5743 5.45685 14.5674 5.45195C14.5498 5.4395 14.5323 5.42704 14.5148 5.41458C14.4835 5.39236 14.4523 5.37016 14.4209 5.34815C14.3859 5.32362 14.3511 5.29886 14.3163 5.27409C14.2989 5.26173 14.2815 5.24937 14.2641 5.23702C14.2572 5.2321 14.2503 5.22719 14.2433 5.22227C14.2399 5.21984 14.2365 5.21741 14.233 5.2149C14.1188 5.13382 14.1188 5.13382 14.1084 5.12644C14.1015 5.12154 14.0946 5.11664 14.0877 5.11173C14.0702 5.09928 14.0527 5.08683 14.0352 5.07437C14.0039 5.05215 13.9727 5.02995 13.9413 5.00794C13.9063 4.98341 13.8715 4.95864 13.8367 4.93388C13.8193 4.92151 13.8019 4.90916 13.7845 4.8968C13.7776 4.89189 13.7706 4.88697 13.7637 4.88206C13.7603 4.87963 13.7569 4.87719 13.7533 4.87469C13.7222 4.85257 13.7222 4.85257 13.7118 4.84519C13.7049 4.84031 13.6981 4.83543 13.6912 4.83054C13.6733 4.81781 13.6553 4.80507 13.6374 4.79233C13.6337 4.78969 13.63 4.78706 13.6262 4.78435C13.6191 4.77934 13.6121 4.77434 13.6051 4.76934C13.6019 4.76705 13.5986 4.76477 13.5953 4.76242C13.5926 4.76044 13.5898 4.75847 13.5869 4.75643C13.5764 4.74846 13.5764 4.74846 13.5604 4.74226C13.5475 4.73296 13.5449 4.72791 13.5417 4.71221C13.5405 4.6921 13.5404 4.6722 13.5407 4.65207C13.5407 4.6442 13.5406 4.63633 13.5406 4.62846C13.5405 4.60671 13.5406 4.58496 13.5407 4.56321C13.5408 4.5396 13.5407 4.51598 13.5407 4.49237C13.5406 4.45094 13.5407 4.40952 13.5408 4.36809C13.541 4.30649 13.541 4.24489 13.541 4.18329C13.5409 4.07968 13.5411 3.97607 13.5412 3.87246C13.5414 3.76983 13.5416 3.66721 13.5416 3.56459C13.5416 3.5614 13.5416 3.55821 13.5416 3.55493C13.5416 3.52583 13.5416 3.49674 13.5416 3.46764C13.5416 3.3953 13.5417 3.32296 13.5417 3.25063C13.5417 3.24733 13.5417 3.24404 13.5417 3.24064C13.5418 3.08036 13.542 2.92007 13.5422 2.75979C13.5423 2.70416 13.5424 2.64853 13.5424 2.5929C13.5424 2.58945 13.5425 2.586 13.5425 2.58245C13.5427 2.42209 13.5428 2.26173 13.5429 2.10138C13.5429 2.09097 13.5429 2.08056 13.5429 2.07015C13.5429 2.00117 13.543 1.93218 13.543 1.8632C13.5431 1.72594 13.5432 1.58868 13.5433 1.45142C13.5433 1.44489 13.5433 1.43835 13.5433 1.43181C13.5436 1.04583 13.544 0.659849 13.5447 0.127013Z" fill="var(--fill-0, #D4BD9D)"/>
<path id="Vector_2" d="M39.5364 0.127013C44.6497 0.127013 44.6497 0.127013 44.9549 0.143759C44.9655 0.144334 44.976 0.144897 44.9865 0.145457C45.3652 0.165654 45.7431 0.199911 46.8875 0.381039C46.892 0.381937 46.8965 0.382836 46.9011 0.383762C47.0527 0.41414 47.2032 0.448575 47.3533 0.485371C47.3582 0.48657 47.3631 0.487768 47.3681 0.489003C47.5993 0.54582 47.8279 0.611515 48.0543 0.684963C48.0587 0.686395 48.0631 0.687828 48.0677 0.689304C48.47 0.819896 48.8614 0.979976 49.4317 1.26997C49.4522 1.28156 49.4729 1.2927 49.4938 1.30372C49.5497 1.33328 49.6041 1.36492 49.6583 1.39741C49.6727 1.40604 49.6871 1.41461 49.7016 1.42317C49.7787 1.4691 49.8536 1.51801 49.9283 1.56753C49.9437 1.57769 49.9591 1.58777 49.9745 1.59783C49.998 1.61326 50.0213 1.62896 50.0445 1.64493C50.0504 1.64896 50.0504 1.64896 50.0563 1.65308C50.1188 1.69629 50.18 1.74107 50.2402 1.78725C50.2427 1.78915 50.2452 1.79104 50.2477 1.793C50.3133 1.84303 50.3771 1.89512 50.4399 1.94847C50.4478 1.95514 50.4557 1.96175 50.4637 1.96835C50.4958 1.99507 50.5269 2.02258 50.5575 2.05095C50.5719 2.06427 50.5864 2.07741 50.6014 2.09004C50.6193 2.10516 50.6357 2.12162 50.6521 2.13824C50.6615 2.14728 50.6709 2.15567 50.6809 2.16406C50.7049 2.18455 50.7273 2.20667 50.7497 2.22882C50.757 2.23604 50.7644 2.24324 50.7717 2.25043C50.7945 2.27286 50.8168 2.29549 50.8378 2.31963C50.8464 2.32941 50.8557 2.33846 50.8651 2.34747C50.8805 2.36239 50.8949 2.3777 50.9089 2.39381C50.9184 2.40447 50.9282 2.41484 50.938 2.4252C50.9614 2.44981 50.9836 2.47491 51.0051 2.50119C51.015 2.51303 51.0252 2.5244 51.0357 2.53572C51.0574 2.5592 51.0777 2.58363 51.098 2.6083C51.1028 2.61405 51.1075 2.61979 51.1123 2.62552C51.1412 2.66029 51.1697 2.69533 51.1973 2.7311C51.2052 2.74132 51.2132 2.75149 51.2212 2.76166C51.2569 2.80715 51.2912 2.8532 51.3237 2.90092C51.3339 2.9159 51.3446 2.93052 51.3555 2.94508C51.3762 2.9729 51.3957 3.00144 51.4151 3.03017C51.4178 3.03418 51.4178 3.03418 51.4205 3.03828C51.4521 3.08503 51.4831 3.13208 51.5131 3.17986C51.516 3.18459 51.519 3.18932 51.522 3.19419C51.5668 3.26564 51.6102 3.3377 51.6514 3.4112C51.6538 3.41548 51.6562 3.41975 51.6587 3.42415C51.8629 3.78922 52.0288 4.17439 52.4066 6.0351C52.407 6.04176 52.407 6.04176 52.4074 6.04855C52.4151 6.17614 52.4179 6.30366 52.4178 6.43145C52.4178 6.43658 52.4178 6.43658 52.4178 6.44181C52.4178 6.56734 52.4152 6.69253 52.4077 6.81787C52.4075 6.82191 52.4073 6.82595 52.407 6.83012C52.3815 7.26549 52.3091 7.70002 52.0895 8.41461C52.0885 8.41769 52.0874 8.42077 52.0863 8.42395C52.0114 8.63862 51.9184 8.84571 51.8174 9.04967C51.8154 9.05368 51.8135 9.05769 51.8114 9.06182C51.7837 9.11772 51.7541 9.17253 51.7234 9.22695C51.7184 9.23595 51.7133 9.24495 51.7083 9.25397C51.6696 9.32306 51.6293 9.39099 51.5868 9.45793C51.583 9.464 51.583 9.464 51.5791 9.47019C51.4814 9.62368 51.3773 9.77331 51.264 9.91608C51.2611 9.91978 51.2611 9.91978 51.2581 9.92356C51.2134 9.98007 51.1678 10.0359 51.1205 10.0904C51.1075 10.1054 51.0947 10.1207 51.0821 10.1361C51.062 10.1605 51.0404 10.1835 51.0186 10.2064C51.0087 10.2168 50.9991 10.2274 50.9896 10.2381C50.9689 10.2616 50.9474 10.2843 50.9259 10.307C50.9183 10.3151 50.9108 10.3232 50.9032 10.3313C50.8601 10.3771 50.8154 10.4213 50.7706 10.4655C50.7674 10.4686 50.7643 10.4717 50.7611 10.4749C50.7005 10.5347 50.7005 10.5347 50.6714 10.5589C50.6625 10.5665 50.6542 10.5746 50.6461 10.5829C50.6316 10.5973 50.6167 10.6107 50.6011 10.6238C50.5909 10.6326 50.5809 10.6416 50.571 10.6507C50.5471 10.6725 50.5226 10.6932 50.4972 10.7133C50.4842 10.7239 50.4717 10.735 50.4593 10.7462C50.4371 10.7662 50.4142 10.785 50.3908 10.8036C50.382 10.8106 50.3733 10.8177 50.3647 10.8248C50.3253 10.8569 50.2855 10.8882 50.2448 10.9186C50.2354 10.9258 50.226 10.9329 50.2166 10.9401C50.1636 10.9803 50.1094 11.0189 50.0552 11.0575C50.0522 11.0596 50.0493 11.0617 50.0462 11.0639C50.0356 11.0714 50.0249 11.0789 50.0142 11.0864C50.0116 11.0883 50.009 11.0901 50.0062 11.092C49.9572 11.1265 49.9076 11.1598 49.8574 11.1926C49.8459 11.2001 49.8344 11.2076 49.823 11.2151C49.7557 11.2592 49.688 11.3028 49.6191 11.3444C49.614 11.3475 49.6089 11.3506 49.6036 11.3538C49.4052 11.4732 49.2013 11.582 48.9933 11.6843C48.9885 11.6867 48.9838 11.689 48.9788 11.6915C48.8987 11.7308 48.8181 11.7686 48.736 11.804C48.7277 11.8076 48.7194 11.8112 48.711 11.8149C48.3068 11.9911 47.8873 12.1328 44.8442 12.6092C44.8408 12.6093 44.8374 12.6094 44.8339 12.6096C44.8305 12.6097 44.8272 12.6098 44.8237 12.61C44.8194 12.6102 44.8194 12.6102 44.8149 12.6103C43.0569 12.6805 41.2959 12.6196 39.5364 12.6196C39.5364 8.49707 39.5364 4.37451 39.5364 0.127013ZM43.936 3.49286C43.936 5.55264 43.936 7.61243 43.936 9.73463C44.7199 9.74572 44.7199 9.74572 45.5092 9.71762C45.5143 9.71725 45.5194 9.71688 45.5247 9.71649C45.9416 9.68599 46.3589 9.61977 47.4132 9.17215C47.4166 9.16998 47.4199 9.1678 47.4233 9.16557C47.4918 9.12061 47.559 9.07331 47.6212 9.02019C47.6337 9.00958 47.6465 8.99941 47.6594 8.98928C47.7126 8.94643 47.7612 8.89838 47.8098 8.85065C47.8121 8.84841 47.8144 8.84618 47.8167 8.84388C47.8431 8.81804 47.8687 8.79182 47.8928 8.76389C47.8974 8.75877 47.9019 8.75365 47.9065 8.74853C48.1669 8.45328 48.3383 8.09072 48.4463 7.68428C48.4471 7.68109 48.4479 7.6779 48.4488 7.67462C48.5479 7.29073 48.5711 6.89309 48.5569 6.269C48.5566 6.2649 48.5564 6.2608 48.5561 6.25657C48.5328 5.93354 48.478 5.61464 48.3725 5.30733C48.3707 5.30209 48.3689 5.29685 48.367 5.29145C48.269 5.00839 48.1202 4.74291 47.9251 4.5135C47.9229 4.51081 47.9206 4.50813 47.9183 4.50537C47.8539 4.42956 47.785 4.35367 47.7082 4.28981C47.697 4.28036 47.6863 4.27047 47.6755 4.2606C47.649 4.23684 47.6211 4.21518 47.5927 4.19367C47.5838 4.18682 47.575 4.17983 47.5662 4.1728C47.5226 4.13833 47.4773 4.10707 47.4308 4.0766C47.4279 4.07472 47.4251 4.07283 47.4221 4.07088C47.0974 3.858 46.7316 3.72439 45.3359 3.50108C45.3311 3.50083 45.3311 3.50083 45.3262 3.50057C44.8634 3.47707 44.3994 3.49286 43.936 3.49286Z" fill="var(--fill-0, white)"/>
<path id="Vector_3" d="M62.5676 0.000223527C62.5646 0.0107021 62.5615 0.0211807 62.5584 0.0319768C62.5618 0.0319292 62.5652 0.0318817 62.5688 0.0318328C63.0897 0.0257824 63.6144 0.0757029 65.2839 0.449305C65.2902 0.451277 65.2902 0.451277 65.2965 0.453289C65.7216 0.587855 66.1309 0.761278 66.702 1.04629C66.7147 1.05323 66.7275 1.06001 66.7403 1.06676C66.801 1.09873 66.8607 1.13204 66.92 1.16646C66.9359 1.17564 66.9518 1.18476 66.9677 1.19386C67.0347 1.23217 67.101 1.27137 67.1665 1.31221C67.1789 1.31998 67.1914 1.3277 67.2039 1.33542C67.3018 1.39602 67.3982 1.45917 67.493 1.52438C67.496 1.52648 67.4991 1.52857 67.5022 1.53074C67.5988 1.59726 67.6948 1.66492 67.788 1.736C67.7998 1.74504 67.8117 1.754 67.8237 1.76293C67.8524 1.78451 67.8805 1.8068 67.9084 1.82932C67.9354 1.85094 67.963 1.87159 67.991 1.89181C67.9845 1.90637 67.9767 1.91612 67.9652 1.92733C67.9602 1.93235 67.9602 1.93235 67.955 1.93748C67.9513 1.94105 67.9476 1.94463 67.9439 1.94832C67.9401 1.95204 67.9363 1.95577 67.9324 1.9596C67.9243 1.96749 67.9163 1.97536 67.9083 1.98322C67.896 1.99517 67.8838 2.00716 67.8716 2.01915C67.8638 2.02682 67.856 2.03449 67.8482 2.04216C67.8446 2.04571 67.8409 2.04926 67.8372 2.05291C67.8337 2.05631 67.8303 2.0597 67.8267 2.06319C67.8237 2.06613 67.8207 2.06906 67.8176 2.07209C67.8085 2.08051 67.7993 2.08851 67.7898 2.0965C67.7694 2.11408 67.7501 2.13265 67.731 2.15157C67.7272 2.15524 67.7235 2.1589 67.7197 2.16268C67.7072 2.17495 67.6947 2.18724 67.6822 2.19953C67.6732 2.20843 67.6641 2.21732 67.6551 2.22622C67.6354 2.24555 67.6158 2.26489 67.5961 2.28424C67.5669 2.313 67.5377 2.34176 67.5084 2.37051C67.4593 2.41887 67.4101 2.46725 67.3609 2.51564C67.3123 2.56354 67.2636 2.61143 67.2149 2.65932C67.2119 2.6623 67.2088 2.66528 67.2057 2.66835C67.1903 2.68348 67.175 2.6986 67.1596 2.71373C67.0507 2.82085 66.9418 2.92798 66.8329 3.03512C66.7272 3.1392 66.6214 3.24327 66.5156 3.34733C66.5124 3.35054 66.5091 3.35375 66.5057 3.35705C66.473 3.38927 66.4402 3.42149 66.4075 3.45371C66.3408 3.51934 66.2741 3.58497 66.2073 3.65061C66.2027 3.65513 66.2027 3.65513 66.198 3.65975C65.9933 3.86123 65.7885 4.06273 65.5837 4.26423C65.5688 4.25726 65.5588 4.24991 65.5471 4.23836C65.5437 4.23503 65.5404 4.2317 65.5369 4.22828C65.5334 4.2248 65.5299 4.22132 65.5263 4.21773C65.5229 4.21432 65.5194 4.21092 65.5158 4.2074C65.5013 4.19297 65.487 4.17857 65.4739 4.16282C65.4655 4.15288 65.4577 4.14503 65.4477 4.13693C65.4298 4.122 65.4134 4.10597 65.3969 4.08959C65.3782 4.07097 65.3593 4.05287 65.339 4.0359C65.3284 4.02698 65.3182 4.01775 65.3079 4.0085C65.2883 3.99117 65.2683 3.97463 65.2478 3.95836C65.2368 3.94964 65.226 3.9408 65.2152 3.93192C65.1744 3.89854 65.1331 3.8663 65.0903 3.83547C65.0811 3.82883 65.072 3.82214 65.0628 3.81545C64.9336 3.72171 64.7973 3.6374 64.6567 3.56112C64.6521 3.55859 64.6475 3.55606 64.6427 3.55345C64.3039 3.3692 63.9326 3.23703 63.0104 3.0939C63.0069 3.09364 63.0035 3.09339 63 3.09313C62.929 3.08808 62.8579 3.08851 62.7868 3.08852C62.7728 3.08852 62.7588 3.08849 62.7448 3.08843C62.6146 3.08785 62.4848 3.09266 62.3552 3.10637C62.3516 3.10675 62.3479 3.10712 62.3442 3.10751C62.0624 3.13695 61.785 3.1936 61.516 3.28147C61.5072 3.28433 61.4984 3.28716 61.4896 3.28999C61.2464 3.3686 61.0076 3.47311 60.7875 3.60195C60.7843 3.60378 60.7812 3.60561 60.7779 3.60749C60.7229 3.63938 60.6691 3.67264 60.616 3.70764C60.6047 3.71508 60.5934 3.72248 60.5821 3.72987C60.5162 3.77315 60.4512 3.8179 60.3889 3.86618C60.3854 3.86883 60.382 3.87148 60.3785 3.8742C60.3515 3.89498 60.3249 3.91605 60.2987 3.93762C60.2963 3.93957 60.2939 3.94151 60.2915 3.94352C60.2615 3.96819 60.2319 3.99324 60.203 4.01912C60.1937 4.02732 60.1844 4.03537 60.175 4.04337C60.1269 4.08475 60.081 4.12832 60.0358 4.17285C60.0271 4.18152 60.0183 4.19015 60.0094 4.19879C59.9843 4.22355 59.9592 4.24822 59.9362 4.27492C59.9261 4.28654 59.9155 4.29758 59.9049 4.30874C59.8855 4.32948 59.8669 4.35075 59.849 4.37274C59.8404 4.38317 59.8317 4.39351 59.823 4.40379C59.7814 4.45274 59.7422 4.50316 59.7037 4.55454C59.7011 4.55801 59.6985 4.56148 59.6958 4.56505C59.6563 4.61765 59.6194 4.67167 59.5838 4.72692C59.5814 4.7307 59.5789 4.73448 59.5764 4.73838C59.3631 5.06875 59.2151 5.43451 59.095 6.1286C59.0945 6.1336 59.094 6.1386 59.0935 6.14376C59.0777 6.31379 59.0781 6.48943 59.095 6.65933C59.0956 6.66538 59.0961 6.67143 59.0967 6.67748C59.1319 7.04153 59.2332 7.39604 59.3948 7.72533C59.3961 7.72802 59.3974 7.73071 59.3987 7.73348C59.4362 7.80996 59.4758 7.88457 59.5205 7.95729C59.5286 7.97039 59.5365 7.98354 59.5445 7.9967C59.6279 8.13424 59.7238 8.2647 59.8283 8.38761C59.8302 8.38992 59.8322 8.39223 59.8342 8.3946C59.86 8.42506 59.8863 8.45493 59.9136 8.4841C59.9227 8.4939 59.9316 8.5038 59.9404 8.51381C59.9572 8.53271 59.9745 8.5511 59.992 8.56934C59.9951 8.57265 59.9983 8.57596 60.0016 8.57936C60.0235 8.6021 60.0456 8.62456 60.0681 8.64674C60.0708 8.64942 60.0735 8.6521 60.0763 8.65486C60.0929 8.67117 60.1102 8.68651 60.1279 8.70162C60.1434 8.71504 60.1583 8.72913 60.1733 8.74314C60.1978 8.7659 60.2226 8.78775 60.249 8.80841C60.2613 8.81819 60.2733 8.82824 60.2852 8.83843C60.3151 8.86399 60.3458 8.8884 60.3775 8.91183C60.3874 8.91921 60.3974 8.92664 60.4073 8.93406C60.4902 8.99585 60.5752 9.05404 60.663 9.10887C60.6669 9.11129 60.6707 9.11372 60.6747 9.11622C60.7373 9.15517 60.8011 9.19165 60.8659 9.22681C60.8707 9.22944 60.8755 9.23207 60.8805 9.23478C61.0819 9.34437 61.2933 9.43218 61.5115 9.50351C61.5163 9.50507 61.5163 9.50506 61.5211 9.50665C61.8517 9.61457 62.197 9.67513 62.5446 9.69403C62.5491 9.69429 62.5536 9.69456 62.5582 9.69483C62.9523 9.71725 63.3499 9.67498 64.5507 9.28124C64.5557 9.27878 64.5607 9.27632 64.5658 9.27378C64.6346 9.23964 64.7012 9.20215 64.7674 9.1633C64.7718 9.16074 64.7762 9.15818 64.7807 9.15554C64.852 9.11399 64.9208 9.06922 64.9888 9.02268C64.9936 9.01938 64.9936 9.01938 64.9986 9.01602C65.0665 8.96962 65.1319 8.91951 65.1963 8.86845C65.2007 8.86496 65.2051 8.86148 65.2096 8.85789C65.2625 8.81556 65.3137 8.77183 65.3635 8.72606C65.3692 8.72084 65.3751 8.71569 65.381 8.71058C65.4162 8.68003 65.4493 8.64752 65.4824 8.61482C65.4923 8.60505 65.5023 8.59531 65.5122 8.58557C65.5186 8.57926 65.525 8.57295 65.5314 8.56663C65.5344 8.56377 65.5373 8.56091 65.5403 8.55797C65.5687 8.52982 65.5949 8.49988 65.6206 8.46926C65.6343 8.47532 65.6438 8.48193 65.6543 8.49251C65.6568 8.49496 65.6592 8.4974 65.6618 8.49992C65.6699 8.50863 65.6778 8.5175 65.6856 8.5265C65.7059 8.54935 65.7278 8.57048 65.7497 8.59174C65.7941 8.63477 65.7941 8.63477 65.8118 8.65511C65.8321 8.67835 65.8544 8.69954 65.8765 8.72102C65.9015 8.74526 65.926 8.76947 65.9489 8.7957C65.9661 8.81475 65.9849 8.8324 66.0034 8.8503C66.0276 8.87376 66.0512 8.89725 66.0733 8.92263C66.0906 8.94171 66.1094 8.95939 66.1279 8.97732C66.1521 9.00078 66.1757 9.02427 66.1978 9.04965C66.2151 9.06872 66.2339 9.0864 66.2524 9.10433C66.2766 9.12779 66.3002 9.15128 66.3223 9.17666C66.3396 9.19573 66.3584 9.21342 66.3769 9.23134C66.4011 9.2548 66.4247 9.27829 66.4469 9.30367C66.4642 9.32275 66.4829 9.34043 66.5014 9.35836C66.5458 9.40138 66.5458 9.40138 66.5635 9.42172C66.5838 9.44496 66.6061 9.46616 66.6283 9.48764C66.6533 9.51188 66.6778 9.53609 66.7006 9.56231C66.7178 9.58137 66.7366 9.59902 66.7551 9.61692C66.7793 9.64038 66.8029 9.66387 66.825 9.68925C66.8423 9.70832 66.8611 9.726 66.8796 9.74393C66.9038 9.76739 66.9274 9.79088 66.9495 9.81626C66.9668 9.83533 66.9856 9.85302 67.0041 9.87094C67.0283 9.8944 67.0519 9.91789 67.0741 9.94327C67.0913 9.96235 67.1101 9.98003 67.1286 9.99796C67.1528 10.0214 67.1765 10.0449 67.1986 10.0703C67.2159 10.0894 67.2346 10.107 67.2531 10.125C67.2774 10.1484 67.301 10.1719 67.3231 10.1973C67.3404 10.2164 67.3592 10.2341 67.3777 10.252C67.4221 10.295 67.4221 10.295 67.4398 10.3153C67.46 10.3386 67.4823 10.3598 67.5045 10.3813C67.5295 10.4055 67.554 10.4297 67.5768 10.4559C67.5941 10.475 67.6128 10.4926 67.6313 10.5105C67.6555 10.534 67.6791 10.5575 67.7013 10.5829C67.7185 10.6019 67.7373 10.6196 67.7558 10.6376C67.78 10.661 67.8036 10.6845 67.8258 10.7099C67.8431 10.729 67.8618 10.7466 67.8803 10.7646C67.905 10.7885 67.9292 10.8124 67.9517 10.8383C67.9612 10.849 67.9713 10.859 67.9815 10.8689C67.9851 10.8724 67.9886 10.8758 67.9923 10.8794C67.9949 10.8819 67.9975 10.8844 68.0002 10.887C67.9842 10.9081 67.9662 10.9236 67.9451 10.9397C67.9317 10.95 67.9186 10.9605 67.9055 10.9711C67.8705 10.9993 67.8349 11.0266 67.7989 11.0535C67.7819 11.0662 67.7651 11.0791 67.7483 11.092C67.7023 11.1274 67.6555 11.1617 67.6082 11.1955C67.6048 11.198 67.6014 11.2005 67.5978 11.203C67.5737 11.2203 67.5495 11.2374 67.5252 11.2545C67.522 11.2567 67.5188 11.259 67.5155 11.2613C67.3972 11.3446 67.2752 11.4237 67.1517 11.4994C67.1478 11.5018 67.1438 11.5043 67.1398 11.5068C67.0783 11.5447 67.0161 11.5814 66.9534 11.6174C66.9488 11.62 66.9441 11.6227 66.9394 11.6254C66.8269 11.69 66.7131 11.7518 66.5973 11.8104C66.5818 11.8183 66.5663 11.8264 66.5509 11.8344C66.4576 11.8831 66.3628 11.9283 66.2667 11.9714C66.2564 11.976 66.2462 11.9806 66.236 11.9852C66.0239 12.0805 65.8084 12.1674 65.5888 12.2445C65.5784 12.2482 65.5679 12.2518 65.5575 12.2555C65.1812 12.3881 64.7947 12.4917 64.4031 12.57C64.3986 12.5709 64.3941 12.5718 64.3895 12.5727C63.8998 12.6706 63.4033 12.722 62.9043 12.7423C62.9001 12.7425 62.8958 12.7427 62.8915 12.7429C62.5605 12.7565 62.2273 12.7474 59.8744 12.3613C59.87 12.3599 59.8655 12.3586 59.861 12.3571C59.555 12.262 59.2555 12.1501 58.9635 12.0192C58.9531 12.0146 58.9427 12.0099 58.9323 12.0053C58.8493 11.9684 58.7677 11.9287 58.6862 11.8886C58.6778 11.8845 58.6694 11.8804 58.6609 11.8763C58.5932 11.843 58.5261 11.8089 58.4599 11.7728C58.4505 11.7677 58.4412 11.7626 58.4318 11.7576C58.3584 11.7181 58.2862 11.6771 58.2145 11.6348C58.2014 11.6271 58.1882 11.6194 58.1751 11.6117C58.1268 11.5834 58.0791 11.5543 58.0317 11.5246C58.0203 11.5175 58.0089 11.5104 57.9974 11.5034C57.8572 11.4167 57.7207 11.3234 57.587 11.2273C57.5834 11.2247 57.5799 11.2222 57.5762 11.2196C57.5253 11.1831 57.4752 11.1456 57.4256 11.1073C57.4124 11.0972 57.3991 11.0873 57.3858 11.0773C57.3536 11.053 57.3222 11.0277 57.2908 11.0025C57.28 10.9938 57.269 10.9852 57.2581 10.9766C57.2133 10.9415 57.1694 10.9054 57.1258 10.8689C57.1217 10.8655 57.1217 10.8655 57.1176 10.862C57.0865 10.836 57.0556 10.8097 57.0253 10.7827C57.0161 10.7745 57.0067 10.7664 56.9972 10.7583C56.9769 10.7409 56.9571 10.7229 56.9373 10.7049C56.9267 10.6954 56.916 10.6861 56.9051 10.6768C56.8852 10.6597 56.866 10.6421 56.8468 10.6242C56.8435 10.6212 56.8402 10.6182 56.8369 10.6151C56.8179 10.5975 56.7992 10.5795 56.781 10.5611C56.772 10.5526 56.7629 10.5447 56.7534 10.5367C56.7335 10.5196 56.7147 10.5015 56.696 10.4831C56.6926 10.4797 56.6891 10.4763 56.6855 10.4728C56.6783 10.4657 56.671 10.4585 56.6638 10.4514C56.6528 10.4405 56.6418 10.4297 56.6308 10.4189C56.6237 10.412 56.6166 10.405 56.6095 10.398C56.6063 10.3948 56.603 10.3916 56.5997 10.3884C56.5814 10.3703 56.564 10.3518 56.5471 10.3325C56.5369 10.3209 56.5259 10.3103 56.5147 10.2996C56.4979 10.2833 56.4819 10.2667 56.4666 10.2491C56.453 10.2339 56.4389 10.2191 56.4248 10.2044C56.4028 10.1813 56.3811 10.1581 56.3602 10.134C56.3561 10.1294 56.3521 10.1247 56.348 10.12C56.3385 10.1091 56.329 10.0982 56.3195 10.0873C56.3101 10.0765 56.3007 10.0658 56.2913 10.055C56.2394 9.99589 56.189 9.93562 56.1403 9.87399C56.1344 9.86653 56.1284 9.85911 56.1224 9.8517C56.0191 9.72322 55.9212 9.59066 55.8299 9.45361C55.8265 9.4486 55.8265 9.4486 55.8231 9.44348C55.7404 9.31976 55.6632 9.19293 55.5901 9.0635C55.5877 9.05931 55.5853 9.05511 55.5829 9.05079C55.3791 8.68958 55.2219 8.30483 55.0459 7.66183C55.0451 7.65851 55.0443 7.6552 55.0436 7.65178C54.9707 7.33722 54.9276 7.01485 54.9126 6.6926C54.9123 6.6851 54.9119 6.67761 54.9116 6.67012C54.907 6.57826 54.9066 6.48647 54.9067 6.39453C54.9067 6.39068 54.9067 6.38684 54.9067 6.38287C54.9067 6.2601 54.9081 6.13772 54.9168 6.01519C54.9171 6.01082 54.9174 6.00644 54.9177 6.00193C54.9461 5.5922 55.0143 5.18563 55.3779 4.13722C55.3812 4.13005 55.3812 4.13005 55.3845 4.12273C55.4478 3.9844 55.5152 3.84797 55.5901 3.71535C55.5927 3.71075 55.5952 3.70614 55.5979 3.7014C55.634 3.63722 55.671 3.57375 55.71 3.51122C55.7135 3.50557 55.7135 3.50557 55.717 3.49981C55.7578 3.4338 55.801 3.3694 55.8446 3.30511C55.8473 3.30107 55.8501 3.29703 55.8529 3.29286C55.889 3.23955 55.9258 3.18684 55.9636 3.13472C55.9666 3.13063 55.9695 3.12653 55.9726 3.12231C56.0085 3.07272 56.0456 3.02411 56.0835 2.97595C56.0862 2.97261 56.0888 2.96926 56.0915 2.96582C56.1275 2.91988 56.1641 2.87448 56.2015 2.82962C56.2074 2.82254 56.2132 2.81545 56.2191 2.80835C56.2404 2.78248 56.2623 2.7571 56.2844 2.73188C56.2985 2.71583 56.3122 2.69959 56.3256 2.68309C56.3457 2.65875 56.3672 2.63591 56.3889 2.61301C56.3988 2.60261 56.4084 2.59207 56.4179 2.58131C56.4364 2.56025 56.4557 2.53992 56.475 2.5195C56.4843 2.50962 56.4935 2.4997 56.5027 2.48973C56.525 2.4657 56.5474 2.4421 56.5711 2.41949C56.5798 2.41072 56.5879 2.4018 56.596 2.39251C56.6139 2.37235 56.6328 2.35338 56.6521 2.33449C56.6556 2.331 56.6592 2.3275 56.6628 2.32389C56.6703 2.31655 56.6777 2.30921 56.6852 2.30188C56.6966 2.29074 56.7079 2.27958 56.7192 2.26841C56.7265 2.26123 56.7338 2.25406 56.7411 2.24689C56.7445 2.24359 56.7478 2.2403 56.7512 2.23691C56.7698 2.21873 56.7888 2.20132 56.8087 2.18457C56.8212 2.17377 56.8328 2.16212 56.8445 2.15037C56.8621 2.13255 56.8804 2.11591 56.8995 2.09964C56.9153 2.08595 56.9306 2.07165 56.9459 2.05738C56.9674 2.03738 56.9891 2.01778 57.0114 1.99871C57.0217 1.98988 57.0318 1.98083 57.0419 1.97176C57.0621 1.95385 57.0829 1.93696 57.104 1.92016C57.1162 1.91025 57.1279 1.90001 57.1396 1.88954C57.1611 1.87037 57.1833 1.85232 57.2058 1.8344C57.2176 1.82493 57.2294 1.81536 57.2412 1.8058C57.3019 1.75645 57.3628 1.70743 57.4255 1.66046C57.4348 1.65347 57.444 1.64648 57.4532 1.63948C57.4609 1.63366 57.4686 1.62784 57.4763 1.62202C57.483 1.61699 57.4897 1.61195 57.4963 1.60691C57.544 1.57077 57.5921 1.53527 57.6415 1.50138C57.6651 1.48514 57.6885 1.46845 57.7117 1.4517C57.7751 1.40638 57.8405 1.36383 57.9057 1.3211C57.9097 1.31851 57.9136 1.31592 57.9177 1.31325C57.9776 1.27401 58.0377 1.23515 58.0989 1.19777C58.1035 1.19494 58.1081 1.1921 58.1129 1.18918C58.1843 1.1454 58.2565 1.103 58.3294 1.06169C58.3334 1.05942 58.3374 1.05716 58.3415 1.05483C58.4599 0.987491 58.5799 0.923531 58.7019 0.862702C58.7125 0.857432 58.723 0.852149 58.7336 0.846865C58.8285 0.799409 58.9239 0.753877 59.0212 0.711404C59.0363 0.704836 59.0512 0.698171 59.0662 0.69147C59.2311 0.617703 59.4002 0.550885 59.5711 0.491612C59.5837 0.487257 59.5962 0.482875 59.6087 0.47846C59.9747 0.349541 60.3507 0.246703 60.7322 0.172598C60.7366 0.171737 60.741 0.170875 60.7456 0.169987C61.159 0.0896054 61.5771 0.0391648 61.9978 0.0152496C62.0026 0.0149736 62.0075 0.0146976 62.0125 0.0144132C62.1205 0.00832703 62.2286 0.00442909 62.3367 0.0022081C62.3435 0.002064 62.3435 0.002064 62.3505 0.00191698C62.4229 0.000390959 62.4952 -0.000422945 62.5676 0.000223527Z" fill="var(--fill-0, white)"/>
<path id="Vector_4" d="M0 0.127013C0.0172982 0.133819 0.0264632 0.137633 0.0401905 0.148276C0.0433197 0.150673 0.0464489 0.15307 0.049673 0.15554C0.0546187 0.159382 0.0546187 0.159382 0.0596643 0.163302C0.0838589 0.181806 0.108116 0.20008 0.133164 0.217453C0.158455 0.235033 0.183477 0.252944 0.208393 0.271037C0.213942 0.275066 0.213942 0.275066 0.219603 0.279176C0.230953 0.287422 0.2423 0.295672 0.253645 0.303924C0.296547 0.335116 0.33948 0.366251 0.382774 0.396915C0.422359 0.424954 0.461644 0.453381 0.500875 0.481896C0.519142 0.495167 0.537429 0.508412 0.555714 0.52166C0.563016 0.526952 0.570318 0.532245 0.57762 0.537537C0.583041 0.541466 0.583041 0.541466 0.588572 0.545475C0.621431 0.56929 0.621431 0.56929 0.632385 0.57723C0.639683 0.582519 0.646981 0.587807 0.654279 0.593095C0.672601 0.60637 0.690915 0.619654 0.709216 0.632956C0.745053 0.65899 0.780973 0.684891 0.817141 0.710479C0.846282 0.731095 0.875101 0.752084 0.903753 0.773352C0.929802 0.792639 0.956201 0.811423 0.98267 0.830148C1.01905 0.855911 1.05512 0.88209 1.09118 0.908296C1.10944 0.921568 1.12773 0.934813 1.14602 0.948061C1.15332 0.953353 1.16062 0.958645 1.16792 0.963937C1.17154 0.966557 1.17515 0.969177 1.17887 0.971876C1.21173 0.995691 1.21173 0.995691 1.22269 1.00363C1.22998 1.00892 1.23728 1.01421 1.24458 1.0195C1.2629 1.03277 1.28122 1.04605 1.29952 1.05936C1.33508 1.08519 1.37071 1.1109 1.40658 1.13631C1.44616 1.16435 1.48545 1.19278 1.52468 1.22129C1.54295 1.23456 1.56123 1.24781 1.57952 1.26106C1.58682 1.26635 1.59412 1.27164 1.60142 1.27693C1.60504 1.27955 1.60865 1.28217 1.61238 1.28487C1.73286 1.37219 1.73286 1.37219 1.74381 1.38013C1.75111 1.38542 1.75841 1.39071 1.76571 1.396C1.78403 1.40927 1.80234 1.42256 1.82064 1.43586C1.8562 1.46169 1.89183 1.48741 1.9277 1.51281C1.96729 1.54085 2.00657 1.56928 2.04581 1.5978C2.06407 1.61107 2.08236 1.62431 2.10064 1.63756C2.10795 1.64285 2.11525 1.64814 2.12255 1.65344C2.12616 1.65606 2.12978 1.65868 2.1335 1.66137C2.16636 1.68519 2.16636 1.68519 2.17732 1.69313C2.18461 1.69842 2.19191 1.70371 2.19921 1.70899C2.21753 1.72227 2.23585 1.73555 2.25415 1.74886C2.2897 1.77469 2.32534 1.8004 2.36121 1.82581C2.40079 1.85385 2.44008 1.88228 2.47931 1.91079C2.49758 1.92406 2.51586 1.93731 2.53415 1.95056C2.54145 1.95585 2.54875 1.96114 2.55605 1.96643C2.55967 1.96905 2.56328 1.97167 2.56701 1.97437C2.68749 2.06169 2.68749 2.06169 2.69844 2.06963C2.70574 2.07492 2.71304 2.08021 2.72034 2.0855C2.73866 2.09877 2.75697 2.11206 2.77527 2.12536C2.81083 2.15119 2.84646 2.17691 2.88233 2.20231C2.92192 2.23035 2.9612 2.25878 3.00043 2.28729C3.0187 2.30057 3.03699 2.31381 3.05527 2.32706C3.06258 2.33235 3.06988 2.33764 3.07718 2.34294C3.08079 2.34555 3.08441 2.34817 3.08813 2.35087C3.12099 2.37469 3.12099 2.37469 3.13194 2.38263C3.13924 2.38792 3.14654 2.39321 3.15384 2.39849C3.17216 2.41177 3.19047 2.42505 3.20878 2.43835C3.24433 2.46419 3.27996 2.4899 3.31584 2.51531C3.35542 2.54335 3.39471 2.57178 3.43394 2.60029C3.4522 2.61356 3.47049 2.62681 3.48878 2.64005C3.49608 2.64535 3.50338 2.65064 3.51068 2.65593C3.5143 2.65855 3.51791 2.66117 3.52163 2.66387C3.64212 2.75119 3.64212 2.75119 3.65307 2.75913C3.66037 2.76442 3.66767 2.76971 3.67496 2.775C3.69329 2.78827 3.7116 2.80156 3.7299 2.81486C3.76546 2.84069 3.80109 2.8664 3.83696 2.89181C3.87655 2.91985 3.91583 2.94828 3.95506 2.97679C3.97333 2.99006 3.99162 3.00331 4.0099 3.01656C4.0172 3.02185 4.02451 3.02714 4.03181 3.03243C4.03542 3.03505 4.03904 3.03767 4.04276 3.04037C4.07562 3.06419 4.07562 3.06419 4.08657 3.07213C4.09387 3.07742 4.10117 3.0827 4.10847 3.08799C4.12679 3.10127 4.1451 3.11455 4.1634 3.12785C4.19896 3.15368 4.23459 3.1794 4.27046 3.20481C4.31005 3.23285 4.34933 3.26127 4.38857 3.28979C4.40683 3.30306 4.42512 3.31631 4.4434 3.32955C4.45071 3.33485 4.45801 3.34014 4.46531 3.34543C4.46892 3.34805 4.47254 3.35067 4.47626 3.35337C4.59674 3.44069 4.59674 3.44069 4.6077 3.44863C4.615 3.45392 4.62229 3.45921 4.62959 3.46449C4.64791 3.47777 4.66623 3.49105 4.68453 3.50436C4.72009 3.53019 4.75572 3.5559 4.79159 3.58131C4.83118 3.60935 4.87046 3.63778 4.90969 3.66629C4.92796 3.67956 4.94625 3.69281 4.96453 3.70606C4.97183 3.71135 4.97913 3.71664 4.98644 3.72193C4.99005 3.72455 4.99367 3.72717 4.99739 3.72987C5.03025 3.75369 5.03025 3.75369 5.0412 3.76163C5.0485 3.76691 5.0558 3.7722 5.0631 3.77749C5.08142 3.79077 5.09973 3.80405 5.11803 3.81735C5.15359 3.84318 5.18922 3.8689 5.22509 3.89431C5.26468 3.92235 5.30396 3.95077 5.34319 3.97929C5.36146 3.99256 5.37975 4.0058 5.39803 4.01905C5.40534 4.02434 5.41264 4.02964 5.41994 4.03493C5.42355 4.03755 5.42717 4.04017 5.43089 4.04287C5.46375 4.06668 5.46375 4.06668 5.4747 4.07462C5.482 4.07991 5.4893 4.0852 5.4966 4.09049C5.51492 4.10376 5.53323 4.11705 5.55154 4.13035C5.58737 4.15638 5.62329 4.18228 5.65946 4.20787C5.6886 4.22849 5.71742 4.24948 5.74607 4.27074C5.77212 4.29003 5.79852 4.30881 5.82499 4.32754C5.86137 4.3533 5.89744 4.37948 5.9335 4.40569C5.95176 4.41896 5.97005 4.43221 5.98834 4.44545C5.99564 4.45075 6.00294 4.45604 6.01024 4.46133C6.01386 4.46395 6.01747 4.46657 6.02119 4.46927C6.05405 4.49308 6.05405 4.49308 6.06501 4.50102C6.0723 4.50631 6.0796 4.5116 6.0869 4.51689C6.10522 4.53016 6.12354 4.54345 6.14184 4.55675C6.17767 4.58278 6.21359 4.60868 6.24976 4.63427C6.2789 4.65489 6.30772 4.67588 6.33637 4.69714C6.36242 4.71643 6.38882 4.73522 6.41529 4.75394C6.45168 4.7797 6.48774 4.80588 6.5238 4.83209C6.54207 4.84536 6.56035 4.85861 6.57864 4.87185C6.58594 4.87715 6.59324 4.88244 6.60054 4.88773C6.60416 4.89035 6.60777 4.89297 6.6115 4.89567C6.64435 4.91948 6.64435 4.91948 6.65531 4.92742C6.66261 4.93271 6.6699 4.938 6.6772 4.94329C6.69552 4.95656 6.71384 4.96985 6.73214 4.98315C6.7677 5.00898 6.80333 5.0347 6.8392 5.0601C6.87879 5.08814 6.91807 5.11657 6.9573 5.14509C6.97557 5.15836 6.99386 5.1716 7.01214 5.18485C7.01944 5.19014 7.02674 5.19543 7.03405 5.20073C7.03766 5.20335 7.04127 5.20597 7.045 5.20866C7.16548 5.29599 7.16548 5.29599 7.17643 5.30393C7.18373 5.30921 7.19103 5.3145 7.19833 5.31979C7.21665 5.33307 7.23496 5.34635 7.25327 5.35965C7.28882 5.38548 7.32445 5.4112 7.36033 5.43661C7.39991 5.46465 7.4392 5.49307 7.47843 5.52159C7.49669 5.53486 7.51498 5.5481 7.53327 5.56135C7.54057 5.56664 7.54787 5.57194 7.55517 5.57723C7.55879 5.57985 7.5624 5.58247 7.56612 5.58517C7.59898 5.60898 7.59898 5.60898 7.60994 5.61692C7.61723 5.62221 7.62453 5.6275 7.63183 5.63279C7.65015 5.64606 7.66847 5.65935 7.68677 5.67265C7.72233 5.69848 7.75796 5.7242 7.79383 5.7496C7.83341 5.77764 7.8727 5.80607 7.91193 5.83458C7.9302 5.84786 7.94848 5.8611 7.96677 5.87435C7.97407 5.87964 7.98137 5.88493 7.98867 5.89023C7.99229 5.89284 7.9959 5.89546 7.99963 5.89816C8.03249 5.92198 8.03249 5.92198 8.04344 5.92992C8.05074 5.93521 8.05804 5.9405 8.06533 5.94578C8.08366 5.95906 8.10197 5.97234 8.12027 5.98564C8.15611 6.01168 8.19203 6.03758 8.2282 6.06317C8.25734 6.08378 8.28616 6.10477 8.31481 6.12604C8.34086 6.14533 8.36726 6.16411 8.39372 6.18284C8.43011 6.2086 8.46618 6.23478 8.50223 6.26098C8.5205 6.27426 8.53879 6.2875 8.55707 6.30075C8.56437 6.30604 8.57167 6.31133 8.57898 6.31663C8.58259 6.31925 8.58621 6.32187 8.58993 6.32456C8.62279 6.34838 8.62279 6.34838 8.63374 6.35632C8.64104 6.36161 8.64834 6.3669 8.65564 6.37218C8.67396 6.38546 8.69227 6.39874 8.71057 6.41205C8.74641 6.43808 8.78233 6.46398 8.8185 6.48957C8.84764 6.51018 8.87646 6.53117 8.90511 6.55244C8.93116 6.57173 8.95756 6.59051 8.98403 6.60924C9.02041 6.635 9.05648 6.66118 9.09253 6.68739C9.1108 6.70066 9.12909 6.7139 9.14737 6.72715C9.15467 6.73244 9.16198 6.73773 9.16928 6.74303C9.17289 6.74565 9.17651 6.74827 9.18023 6.75096C9.21309 6.77478 9.21309 6.77478 9.22404 6.78272C9.23134 6.78801 9.23864 6.7933 9.24594 6.79858C9.26426 6.81186 9.28257 6.82514 9.30087 6.83845C9.33643 6.86428 9.37206 6.88999 9.40794 6.9154C9.44752 6.94344 9.48681 6.97187 9.52604 7.00038C9.5443 7.01365 9.56259 7.0269 9.58088 7.04015C9.58818 7.04544 9.59548 7.05073 9.60278 7.05602C9.6064 7.05864 9.61001 7.06126 9.61373 7.06396C9.64659 7.08778 9.64659 7.08778 9.65755 7.09572C9.66484 7.101 9.67214 7.10629 9.67944 7.11158C9.69776 7.12486 9.71608 7.13814 9.73438 7.15144C9.77021 7.17748 9.80613 7.20338 9.8423 7.22896C9.87144 7.24958 9.90026 7.27057 9.92891 7.29184C9.95496 7.31112 9.98136 7.32991 10.0078 7.34863C10.0442 7.3744 10.0803 7.40058 10.1163 7.42678C10.1346 7.44005 10.1529 7.4533 10.1712 7.46655C10.1785 7.47184 10.1858 7.47713 10.1931 7.48242C10.1967 7.48504 10.2003 7.48766 10.204 7.49036C10.2369 7.51418 10.2369 7.51418 10.2478 7.52212C10.2551 7.5274 10.2624 7.53269 10.2697 7.53798C10.2881 7.55126 10.3064 7.56454 10.3247 7.57784C10.3605 7.60388 10.3964 7.62978 10.4326 7.65536C10.4617 7.67598 10.4906 7.69697 10.5192 7.71824C10.5453 7.73753 10.5717 7.75631 10.5981 7.77503C10.6345 7.8008 10.6706 7.82698 10.7066 7.85318C10.7249 7.86645 10.7432 7.8797 10.7615 7.89295C10.7688 7.89824 10.7761 7.90353 10.7834 7.90882C10.787 7.91144 10.7906 7.91406 10.7943 7.91676C10.8272 7.94058 10.8272 7.94058 10.8381 7.94852C10.8454 7.95381 10.8527 7.95909 10.86 7.96438C10.8784 7.97766 10.8967 7.99094 10.915 8.00424C10.9223 8.00958 10.9297 8.01491 10.937 8.02024C10.9406 8.02286 10.9442 8.02547 10.9479 8.02816C10.9662 8.04138 10.9845 8.05453 11.0029 8.06754C11.0065 8.07012 11.0102 8.0727 11.0139 8.07536C11.0208 8.08017 11.0276 8.08497 11.0344 8.08976C11.0406 8.09412 11.0468 8.09856 11.0529 8.10309C11.0635 8.11091 11.0635 8.11091 11.0754 8.11749C11.0949 8.12993 11.1076 8.13935 11.1137 8.16201C11.1151 8.18107 11.1149 8.19964 11.1143 8.21872C11.1142 8.22599 11.1142 8.23326 11.1141 8.24053C11.114 8.26031 11.1135 8.28008 11.1131 8.29985C11.1126 8.32101 11.1124 8.34218 11.1122 8.36335C11.1118 8.39897 11.1112 8.43458 11.1106 8.4702C11.1097 8.52036 11.1092 8.57053 11.1088 8.6207C11.1087 8.63676 11.1086 8.65282 11.1085 8.66888C11.1085 8.67287 11.1084 8.67686 11.1084 8.68097C11.1081 8.72704 11.1076 8.7731 11.1071 8.81916C11.107 8.8256 11.107 8.8256 11.1069 8.83217C11.1068 8.84984 11.1066 8.8675 11.1064 8.88517C11.1059 8.93258 11.1054 8.97999 11.1049 9.0274C11.1039 9.12016 11.1029 9.21291 11.1019 9.30566C11.1011 9.3867 11.1002 9.46774 11.0994 9.54877C11.0993 9.55691 11.0993 9.55691 11.0992 9.56521C11.099 9.58724 11.0987 9.60927 11.0985 9.6313C11.0964 9.8367 11.0942 10.0421 11.092 10.2475C11.0901 10.4295 11.0881 10.6115 11.0862 10.7936C11.0858 10.8403 11.0853 10.8871 11.0848 10.9339C11.0847 10.9396 11.0847 10.9454 11.0846 10.9513C11.083 11.1042 11.0814 11.257 11.0798 11.4099C11.0796 11.4263 11.0794 11.4428 11.0792 11.4592C11.0791 11.4701 11.079 11.481 11.0789 11.492C11.078 11.573 11.0772 11.6541 11.0763 11.7352C11.0754 11.8274 11.0744 11.9195 11.0734 12.0116C11.0729 12.063 11.0723 12.1144 11.0718 12.1659C11.0714 12.2003 11.0711 12.2348 11.0707 12.2692C11.0705 12.2888 11.0703 12.3083 11.0701 12.3279C11.0691 12.4237 11.067 12.5194 11.0635 12.6151C11.0507 12.6089 11.0389 12.6023 11.027 12.5943C11.0236 12.592 11.0201 12.5897 11.0165 12.5873C11.0128 12.5848 11.0091 12.5823 11.0053 12.5797C11.0014 12.5771 10.9976 12.5744 10.9936 12.5717C10.9603 12.5492 10.9275 12.5259 10.8948 12.5025C10.8751 12.4885 10.8552 12.4746 10.8353 12.4609C10.8085 12.4424 10.7819 12.4236 10.7554 12.4047C10.7223 12.3811 10.6888 12.3579 10.6552 12.3349C10.6296 12.3173 10.6043 12.2995 10.579 12.2814C10.5507 12.2612 10.5221 12.2415 10.4931 12.2222C10.4639 12.2026 10.4351 12.1826 10.4066 12.1619C10.3724 12.137 10.3375 12.113 10.3026 12.0889C10.2628 12.0614 10.223 12.0337 10.1836 12.0056C10.1504 11.9819 10.117 11.9588 10.0834 11.9357C10.0578 11.9182 10.0324 11.9003 10.0072 11.8822C9.97887 11.862 9.95023 11.8423 9.92128 11.823C9.89201 11.8034 9.86321 11.7834 9.83479 11.7627C9.80054 11.7378 9.76562 11.7138 9.73076 11.6897C9.6909 11.6622 9.65115 11.6345 9.61172 11.6064C9.57858 11.5827 9.54512 11.5596 9.51153 11.5366C9.48593 11.519 9.46056 11.5011 9.43532 11.483C9.40702 11.4628 9.37838 11.4431 9.34942 11.4238C9.32016 11.4043 9.29135 11.3842 9.26293 11.3635C9.22868 11.3386 9.19377 11.3146 9.1589 11.2905C9.11905 11.263 9.0793 11.2353 9.03986 11.2072C9.00672 11.1836 8.97327 11.1604 8.93968 11.1374C8.91408 11.1198 8.88871 11.1019 8.86346 11.0839C8.83516 11.0636 8.80652 11.0439 8.77757 11.0246C8.7483 11.0051 8.7195 10.9851 8.69108 10.9644C8.65683 10.9394 8.62191 10.9154 8.58705 10.8914C8.54719 10.8638 8.50744 10.8361 8.46801 10.808C8.43487 10.7844 8.40141 10.7612 8.36782 10.7382C8.34222 10.7206 8.31685 10.7027 8.29161 10.6847C8.26331 10.6644 8.23467 10.6448 8.20571 10.6254C8.17645 10.6059 8.14764 10.5859 8.11922 10.5652C8.08497 10.5402 8.05006 10.5163 8.01519 10.4922C7.97534 10.4646 7.93559 10.437 7.89615 10.4088C7.86301 10.3852 7.82956 10.362 7.79597 10.339C7.77037 10.3214 7.745 10.3036 7.71975 10.2855C7.69145 10.2653 7.66281 10.2456 7.63386 10.2262C7.60459 10.2067 7.57579 10.1867 7.54737 10.166C7.51312 10.1411 7.4782 10.1171 7.44334 10.093C7.40348 10.0654 7.36373 10.0378 7.3243 10.0096C7.29116 9.986 7.2577 9.96284 7.22411 9.93982C7.19851 9.92224 7.17314 9.90438 7.1479 9.88631C7.1196 9.86607 7.09096 9.84639 7.062 9.82706C7.03274 9.80752 7.00393 9.78751 6.97551 9.7668C6.94126 9.74188 6.90635 9.71789 6.87148 9.69381C6.83163 9.66626 6.79188 9.63859 6.75244 9.61046C6.7193 9.58682 6.68585 9.56365 6.65226 9.54064C6.62666 9.52306 6.60129 9.5052 6.57604 9.48713C6.54774 9.46688 6.5191 9.44721 6.49015 9.42788C6.46088 9.40833 6.43208 9.38833 6.40366 9.36762C6.36941 9.34269 6.33449 9.31871 6.29963 9.29463C6.25977 9.26707 6.22002 9.2394 6.18059 9.21127C6.14745 9.18763 6.11399 9.16447 6.0804 9.14145C6.0548 9.12388 6.02943 9.10601 6.00419 9.08795C5.97589 9.0677 5.94725 9.04802 5.91829 9.02869C5.88903 9.00915 5.86022 8.98914 5.8318 8.96843C5.79755 8.94351 5.76264 8.91952 5.72777 8.89544C5.68792 8.86789 5.64817 8.84022 5.60873 8.81209C5.57559 8.78845 5.54214 8.76529 5.50855 8.74227C5.48295 8.72469 5.45758 8.70683 5.43233 8.68876C5.40403 8.66852 5.37539 8.64884 5.34644 8.62951C5.31717 8.60997 5.28837 8.58996 5.25995 8.56925C5.2257 8.54433 5.19078 8.52034 5.15592 8.49626C5.11606 8.46871 5.07631 8.44104 5.03688 8.41291C5.00374 8.38927 4.97028 8.3661 4.93669 8.34309C4.91109 8.32551 4.88572 8.30765 4.86048 8.28958C4.83218 8.26933 4.80354 8.24966 4.77458 8.23033C4.74532 8.21078 4.71651 8.19078 4.68809 8.17007C4.65384 8.14514 4.61893 8.12116 4.58406 8.09708C4.54031 8.06683 4.49668 8.03643 4.45345 8.00546C4.42352 7.98408 4.39314 7.96358 4.3627 7.94285C4.36042 10.2579 4.36042 10.2579 4.35809 12.6196C2.90539 12.6196 1.45269 12.6181 0 12.6151C0 8.49404 0 4.37297 0 0.127013Z" fill="var(--fill-0, white)"/>
<path id="Vector_5" d="M13.5449 0.126953C13.5603 0.132842 13.573 0.138769 13.5863 0.148571C13.5914 0.152334 13.5914 0.152334 13.5967 0.156172C13.6003 0.15888 13.604 0.161587 13.6077 0.164377C13.6156 0.170166 13.6235 0.175954 13.6314 0.181742C13.6354 0.184703 13.6394 0.187665 13.6436 0.190717C13.6621 0.204336 13.6807 0.217808 13.6994 0.231285C13.7067 0.236571 13.714 0.241857 13.7213 0.247144C13.7249 0.249763 13.7285 0.252382 13.7322 0.25508C13.7432 0.263072 13.7542 0.271072 13.7653 0.279074C13.8008 0.304906 13.8364 0.330622 13.8723 0.35603C13.9119 0.384068 13.9512 0.412496 13.9904 0.44101C14.0087 0.454282 14.027 0.467527 14.0453 0.480775C14.0672 0.496692 14.0892 0.512614 14.1111 0.528564C14.1467 0.554395 14.1823 0.580112 14.2182 0.60552C14.2578 0.633558 14.2971 0.661985 14.3363 0.6905C14.3546 0.703771 14.3729 0.717017 14.3911 0.730265C14.4131 0.746181 14.4351 0.762104 14.457 0.778054C14.4926 0.803885 14.5282 0.829601 14.5641 0.855009C14.6037 0.883048 14.6429 0.911475 14.6822 0.93999C14.7004 0.953261 14.7187 0.966507 14.737 0.979754C14.759 0.995671 14.781 1.01159 14.8029 1.02754C14.8385 1.05337 14.8741 1.07909 14.91 1.1045C14.9495 1.13254 14.9888 1.16096 15.0281 1.18948C15.0463 1.20275 15.0646 1.216 15.0829 1.22924C15.1049 1.24516 15.1268 1.26108 15.1488 1.27703C15.1843 1.30286 15.22 1.32858 15.2558 1.35399C15.3028 1.38729 15.3494 1.42114 15.396 1.45501C15.4352 1.48352 15.4745 1.51194 15.5141 1.53997C15.5537 1.56801 15.593 1.59644 15.6322 1.62495C15.6505 1.63822 15.6687 1.65147 15.687 1.66472C15.709 1.68063 15.731 1.69656 15.7529 1.71251C15.7885 1.73834 15.8241 1.76405 15.86 1.78946C15.8996 1.8175 15.9388 1.84593 15.9781 1.87444C15.9963 1.88771 16.0146 1.90096 16.0329 1.91421C16.0549 1.93012 16.0768 1.94605 16.0988 1.962C16.1344 1.98783 16.17 2.01354 16.2059 2.03895C16.2454 2.06699 16.2847 2.09542 16.324 2.12393C16.3422 2.1372 16.3605 2.15045 16.3788 2.1637C16.4008 2.17961 16.4227 2.19554 16.4447 2.21149C16.4802 2.23732 16.5159 2.26303 16.5517 2.28844C16.5913 2.31648 16.6306 2.34491 16.6698 2.37342C16.6881 2.38669 16.7064 2.39994 16.7247 2.41319C16.7466 2.4291 16.7686 2.44503 16.7906 2.46098C16.8261 2.48681 16.8617 2.51252 16.8976 2.53793C16.9372 2.56597 16.9765 2.5944 17.0157 2.62291C17.034 2.63618 17.0523 2.64943 17.0706 2.66268C17.0925 2.67859 17.1145 2.69451 17.1364 2.71046C17.172 2.7363 17.2076 2.76201 17.2435 2.78742C17.2831 2.81546 17.3224 2.84389 17.3616 2.8724C17.3799 2.88567 17.3981 2.89892 17.4164 2.91217C17.4384 2.92808 17.4604 2.944 17.4823 2.95995C17.5179 2.98579 17.5535 3.0115 17.5894 3.03691C17.629 3.06495 17.6682 3.09338 17.7075 3.12189C17.7257 3.13516 17.744 3.14841 17.7623 3.16165C17.7843 3.17757 17.8062 3.19349 17.8282 3.20944C17.8638 3.23528 17.8994 3.26099 17.9353 3.2864C17.9823 3.3197 18.0288 3.35356 18.0754 3.38742C18.1147 3.41593 18.1539 3.44435 18.1935 3.47238C18.2331 3.50042 18.2724 3.52885 18.3116 3.55736C18.3299 3.57063 18.3482 3.58388 18.3665 3.59713C18.3884 3.61304 18.4104 3.62897 18.4323 3.64492C18.4679 3.67075 18.5035 3.69646 18.5394 3.72187C18.579 3.74991 18.6183 3.77834 18.6575 3.80685C18.6758 3.82012 18.694 3.83337 18.7123 3.84662C18.7343 3.86253 18.7563 3.87846 18.7782 3.89441C18.8138 3.92024 18.8494 3.94595 18.8853 3.97136C18.9249 3.9994 18.9641 4.02783 19.0034 4.05634C19.0216 4.06961 19.0399 4.08286 19.0582 4.09611C19.0802 4.11202 19.1021 4.12795 19.1241 4.1439C19.1596 4.16973 19.1953 4.19544 19.2312 4.22085C19.2707 4.24889 19.31 4.27732 19.3493 4.30583C19.3675 4.3191 19.3858 4.33235 19.4041 4.3456C19.4261 4.36151 19.448 4.37744 19.47 4.39339C19.5055 4.41922 19.5412 4.44493 19.577 4.47034C19.6166 4.49838 19.6559 4.52681 19.6951 4.55532C19.7134 4.56859 19.7317 4.58184 19.75 4.59509C19.7719 4.611 19.7939 4.62693 19.8158 4.64288C19.8514 4.66871 19.887 4.69442 19.9229 4.71983C19.9625 4.74787 20.0018 4.7763 20.041 4.80481C20.0593 4.81808 20.0776 4.83133 20.0959 4.84458C20.1178 4.86049 20.1398 4.87642 20.1617 4.89237C20.1973 4.9182 20.2329 4.94391 20.2688 4.96932C20.3084 4.99736 20.3477 5.02579 20.3869 5.0543C20.4052 5.06757 20.4234 5.08082 20.4417 5.09407C20.4637 5.10998 20.4857 5.12591 20.5076 5.14186C20.5432 5.16769 20.5788 5.1934 20.6147 5.21881C20.6617 5.25211 20.7083 5.28597 20.7548 5.31983C20.7941 5.34834 20.8334 5.37676 20.8729 5.40479C20.9125 5.43283 20.9518 5.46126 20.991 5.48977C21.0093 5.50305 21.0276 5.51629 21.0459 5.52954C21.0678 5.54546 21.0898 5.56138 21.1117 5.57733C21.1473 5.60316 21.1829 5.62888 21.2188 5.65428C21.2584 5.68232 21.2977 5.71075 21.3369 5.73926C21.3552 5.75254 21.3735 5.76578 21.3917 5.77903C21.4137 5.79495 21.4357 5.81087 21.4576 5.82682C21.4932 5.85265 21.5288 5.87837 21.5647 5.90377C21.6043 5.93181 21.6436 5.96024 21.6828 5.98875C21.7011 6.00202 21.7193 6.01527 21.7376 6.02852C21.7596 6.04444 21.7816 6.06036 21.8035 6.07631C21.8391 6.10214 21.8747 6.12786 21.9106 6.15326C21.9502 6.1813 21.9894 6.20973 22.0287 6.23824C22.0469 6.25151 22.0652 6.26476 22.0835 6.27801C22.1055 6.29392 22.1274 6.30985 22.1494 6.3258C22.1849 6.35163 22.2206 6.37734 22.2564 6.40275C22.296 6.43079 22.3353 6.45922 22.3745 6.48773C22.3928 6.501 22.4111 6.51425 22.4294 6.5275C22.4514 6.54341 22.4733 6.55934 22.4953 6.57529C22.5308 6.60112 22.5665 6.62683 22.6023 6.65224C22.6419 6.68028 22.6812 6.70871 22.7204 6.73722C22.7387 6.75049 22.757 6.76374 22.7753 6.77699C22.7972 6.7929 22.8192 6.80883 22.8411 6.82478C22.8767 6.85061 22.9123 6.87632 22.9482 6.90173C22.9878 6.92977 23.0271 6.9582 23.0663 6.98671C23.0846 6.99998 23.1029 7.01323 23.1211 7.02648C23.1431 7.04239 23.1651 7.05832 23.187 7.07427C23.2226 7.1001 23.2582 7.12581 23.2941 7.15122C23.3337 7.17926 23.373 7.20769 23.4122 7.2362C23.4305 7.24947 23.4487 7.26272 23.467 7.27597C23.489 7.29188 23.511 7.30781 23.5329 7.32376C23.5685 7.34959 23.6041 7.3753 23.64 7.40071C23.687 7.43401 23.7336 7.46787 23.7801 7.50173C23.8194 7.53024 23.8586 7.55866 23.8982 7.58669C23.9378 7.61473 23.9771 7.64316 24.0163 7.67167C24.0346 7.68495 24.0529 7.69819 24.0712 7.71144C24.0931 7.72736 24.1151 7.74328 24.137 7.75923C24.1726 7.78506 24.2082 7.81078 24.2441 7.83618C24.2837 7.86422 24.323 7.89265 24.3622 7.92116C24.3805 7.93444 24.3988 7.94768 24.417 7.96093C24.439 7.97685 24.461 7.99277 24.4829 8.00872C24.5227 8.03761 24.5626 8.06635 24.6028 8.09463C24.609 8.099 24.6151 8.10343 24.6212 8.10794C24.6313 8.11534 24.6313 8.11534 24.6423 8.12086C24.6611 8.132 24.6713 8.14048 24.6768 8.16187C24.6783 8.18155 24.6784 8.20088 24.6781 8.2206C24.6781 8.22826 24.6782 8.23591 24.6782 8.24357C24.6784 8.26469 24.6782 8.28579 24.6781 8.30691C24.6779 8.32985 24.678 8.35279 24.6781 8.37573C24.6782 8.41596 24.6781 8.45619 24.6779 8.49642C24.6777 8.55624 24.6777 8.61606 24.6777 8.67588C24.6778 8.77651 24.6776 8.87713 24.6774 8.97775C24.6771 9.0774 24.677 9.17706 24.6769 9.27671C24.6769 9.2798 24.6769 9.2829 24.6769 9.28609C24.6769 9.31435 24.6769 9.34261 24.6769 9.37087C24.6769 9.44113 24.6768 9.51139 24.6768 9.58165C24.6768 9.58485 24.6768 9.58805 24.6768 9.59135C24.6767 9.747 24.6764 9.90265 24.6761 10.0583C24.676 10.1123 24.6759 10.1663 24.6758 10.2204C24.6758 10.2237 24.6758 10.227 24.6758 10.2305C24.6756 10.3862 24.6754 10.542 24.6753 10.6977C24.6753 10.7078 24.6753 10.7179 24.6753 10.728C24.6752 10.795 24.6752 10.862 24.6751 10.929C24.675 11.0623 24.6749 11.1956 24.6748 11.3289C24.6748 11.3353 24.6747 11.3416 24.6747 11.348C24.6744 11.7395 24.6738 12.131 24.673 12.615C24.6517 12.6048 24.6328 12.5919 24.6133 12.5788C24.6094 12.5761 24.6055 12.5735 24.6014 12.5707C24.5743 12.5523 24.5481 12.5331 24.5221 12.5131C24.5017 12.4975 24.4804 12.483 24.4592 12.4684C24.4351 12.4518 24.4112 12.435 24.3874 12.418C24.3839 12.4156 24.3805 12.4131 24.3769 12.4106C24.37 12.4056 24.363 12.4007 24.356 12.3957C24.3387 12.3834 24.3214 12.3711 24.3041 12.3588C24.2971 12.3538 24.2902 12.3489 24.2833 12.344C24.2799 12.3416 24.2765 12.3391 24.2729 12.3366C23.9928 12.1376 23.9928 12.1376 23.9824 12.1302C23.9755 12.1253 23.9686 12.1204 23.9617 12.1155C23.9441 12.1031 23.9266 12.0906 23.9091 12.0782C23.8779 12.0559 23.8466 12.0337 23.8152 12.0117C23.7802 11.9872 23.7454 11.9624 23.7106 11.9377C23.6932 11.9253 23.6758 11.913 23.6584 11.9006C23.6515 11.8957 23.6446 11.8908 23.6377 11.8859C23.6342 11.8834 23.6308 11.881 23.6273 11.8785C23.5131 11.7974 23.5131 11.7974 23.5028 11.79C23.4959 11.7851 23.489 11.7802 23.4821 11.7753C23.4645 11.7629 23.447 11.7504 23.4295 11.738C23.3982 11.7157 23.367 11.6935 23.3356 11.6715C23.3006 11.647 23.2658 11.6222 23.231 11.5975C23.2136 11.5851 23.1962 11.5727 23.1788 11.5604C23.1719 11.5555 23.165 11.5506 23.158 11.5456C23.1546 11.5432 23.1512 11.5408 23.1477 11.5383C23.0335 11.4572 23.0335 11.4572 23.0231 11.4498C23.0162 11.4449 23.0093 11.44 23.0024 11.4351C22.9849 11.4227 22.9674 11.4102 22.9499 11.3977C22.9186 11.3755 22.8874 11.3533 22.856 11.3313C22.821 11.3068 22.7862 11.282 22.7514 11.2572C22.734 11.2449 22.7166 11.2325 22.6992 11.2202C22.6923 11.2153 22.6853 11.2103 22.6784 11.2054C22.6733 11.2018 22.6733 11.2018 22.668 11.1981C22.5539 11.117 22.5539 11.117 22.5435 11.1096C22.5366 11.1047 22.5297 11.0998 22.5228 11.0949C22.5053 11.0824 22.4878 11.07 22.4702 11.0575C22.439 11.0353 22.4077 11.0131 22.3764 10.9911C22.3414 10.9666 22.3065 10.9418 22.2717 10.917C22.2543 10.9047 22.2369 10.8923 22.2196 10.88C22.2126 10.875 22.2057 10.8701 22.1988 10.8652C22.1937 10.8616 22.1937 10.8616 22.1884 10.8578C22.0743 10.7768 22.0743 10.7768 22.0639 10.7694C22.057 10.7645 22.0501 10.7596 22.0432 10.7547C22.0257 10.7422 22.0081 10.7298 21.9906 10.7173C21.9594 10.6951 21.9281 10.6729 21.8967 10.6509C21.8617 10.6264 21.8269 10.6016 21.7921 10.5768C21.7747 10.5645 21.7573 10.5521 21.7399 10.5397C21.733 10.5348 21.7261 10.5299 21.7192 10.525C21.714 10.5214 21.714 10.5214 21.7088 10.5176C21.5947 10.4365 21.5947 10.4365 21.5843 10.4292C21.5774 10.4243 21.5705 10.4194 21.5636 10.4145C21.546 10.402 21.5285 10.3896 21.511 10.3771C21.4798 10.3549 21.4485 10.3327 21.4171 10.3107C21.3821 10.2861 21.3473 10.2614 21.3125 10.2366C21.2951 10.2242 21.2777 10.2119 21.2603 10.1995C21.2534 10.1946 21.2465 10.1897 21.2396 10.1848C21.2344 10.1811 21.2344 10.1811 21.2292 10.1774C21.115 10.0963 21.115 10.0963 21.1047 10.089C21.0978 10.0841 21.0909 10.0792 21.084 10.0743C21.0664 10.0618 21.0489 10.0493 21.0314 10.0369C21.0001 10.0147 20.9689 9.99247 20.9375 9.97046C20.9025 9.94592 20.8677 9.92116 20.8329 9.89639C20.8155 9.88403 20.7981 9.87167 20.7807 9.85932C20.7738 9.8544 20.7669 9.84949 20.7599 9.84458C20.7548 9.84093 20.7548 9.84093 20.7496 9.83721C20.6354 9.75612 20.6354 9.75612 20.625 9.74875C20.6181 9.74384 20.6112 9.73894 20.6043 9.73404C20.5868 9.72159 20.5693 9.70913 20.5518 9.69667C20.5205 9.67445 20.4893 9.65225 20.4579 9.63024C20.4229 9.60571 20.3881 9.58095 20.3533 9.55618C20.3359 9.54382 20.3185 9.53146 20.3011 9.51911C20.2942 9.51419 20.2872 9.50928 20.2803 9.50436C20.2752 9.50071 20.2752 9.50071 20.2699 9.49699C20.1558 9.41591 20.1558 9.41591 20.1454 9.40853C20.1385 9.40363 20.1316 9.39873 20.1247 9.39382C20.1072 9.38137 20.0897 9.36892 20.0721 9.35646C20.0409 9.33424 20.0096 9.31204 19.9783 9.29003C19.9433 9.2655 19.9084 9.24073 19.8736 9.21597C19.8562 9.2036 19.8388 9.19125 19.8215 9.17889C19.8145 9.17398 19.8076 9.16906 19.8007 9.16415C19.7973 9.16172 19.7939 9.15928 19.7903 9.15678C19.6762 9.07569 19.6762 9.07569 19.6658 9.06832C19.6589 9.06342 19.652 9.05851 19.6451 9.05361C19.6276 9.04116 19.61 9.02871 19.5925 9.01625C19.5613 8.99403 19.53 8.97183 19.4986 8.94982C19.4636 8.92528 19.4288 8.90052 19.394 8.87576C19.3766 8.86339 19.3592 8.85103 19.3418 8.83868C19.3349 8.83377 19.328 8.82885 19.3211 8.82394C19.3177 8.8215 19.3142 8.81907 19.3107 8.81657C19.1966 8.73548 19.1966 8.73548 19.1862 8.72811C19.1793 8.7232 19.1724 8.7183 19.1655 8.7134C19.1479 8.70095 19.1304 8.68849 19.1129 8.67603C19.0817 8.65381 19.0504 8.63161 19.019 8.6096C18.984 8.58507 18.9492 8.56031 18.9144 8.53554C18.897 8.52318 18.8796 8.51082 18.8622 8.49847C18.8553 8.49355 18.8484 8.48864 18.8415 8.48372C18.838 8.48129 18.8346 8.47886 18.8311 8.47635C18.7169 8.39527 18.7169 8.39527 18.7066 8.38789C18.6997 8.38299 18.6928 8.37809 18.6859 8.37318C18.6683 8.36073 18.6508 8.34828 18.6333 8.33582C18.602 8.3136 18.5708 8.2914 18.5394 8.26939C18.5044 8.24486 18.4696 8.22009 18.4348 8.19533C18.4174 8.18296 18.4 8.17061 18.3826 8.15825C18.3757 8.15334 18.3688 8.14842 18.3618 8.14351C18.3584 8.14108 18.355 8.13865 18.3515 8.13614C18.2373 8.05505 18.2373 8.05505 18.2269 8.04768C18.22 8.04278 18.2131 8.03787 18.2062 8.03297C18.1887 8.02052 18.1712 8.00807 18.1537 7.99561C18.1224 7.97339 18.0912 7.95119 18.0598 7.92918C18.0248 7.90464 17.99 7.87988 17.9552 7.85512C17.9378 7.84275 17.9204 7.8304 17.903 7.81804C17.8961 7.81313 17.8891 7.80821 17.8822 7.8033C17.8788 7.80086 17.8754 7.79843 17.8718 7.79593C17.7577 7.71484 17.7577 7.71484 17.7473 7.70747C17.7404 7.70256 17.7335 7.69766 17.7266 7.69276C17.7091 7.68031 17.6916 7.66785 17.674 7.65539C17.6428 7.63317 17.6115 7.61097 17.5802 7.58896C17.5452 7.56443 17.5103 7.53967 17.4755 7.5149C17.4581 7.50254 17.4407 7.49018 17.4234 7.47783C17.4164 7.47291 17.4095 7.468 17.4026 7.46308C17.3992 7.46065 17.3958 7.45822 17.3922 7.45571C17.1951 7.31566 17.1951 7.31566 17.1847 7.30828C17.1778 7.30338 17.1709 7.29848 17.164 7.29357C17.1465 7.28112 17.1289 7.26867 17.1114 7.25621C17.0802 7.23399 17.0489 7.21179 17.0175 7.18978C16.9825 7.16525 16.9477 7.14048 16.9129 7.11572C16.8955 7.10335 16.8781 7.091 16.8607 7.07864C16.8538 7.07373 16.8469 7.06881 16.84 7.0639C16.8365 7.06147 16.8331 7.05904 16.8296 7.05653C16.7155 6.97544 16.7155 6.97544 16.7051 6.96807C16.6982 6.96317 16.6913 6.95826 16.6844 6.95336C16.6668 6.94091 16.6493 6.92846 16.6318 6.916C16.6005 6.89378 16.5693 6.87158 16.5379 6.84957C16.5029 6.82503 16.4681 6.80027 16.4333 6.77551C16.4159 6.76314 16.3985 6.75079 16.3811 6.73843C16.3742 6.73352 16.3673 6.7286 16.3603 6.72369C16.3569 6.72125 16.3535 6.71882 16.35 6.71632C16.2358 6.63523 16.2358 6.63523 16.2254 6.62786C16.2185 6.62295 16.2116 6.61805 16.2047 6.61315C16.1872 6.6007 16.1697 6.58824 16.1522 6.57578C16.1209 6.55356 16.0897 6.53136 16.0583 6.50935C16.0233 6.48482 15.9885 6.46006 15.9537 6.43529C15.9363 6.42293 15.9189 6.41057 15.9015 6.39822C15.8946 6.3933 15.8876 6.38839 15.8807 6.38347C15.8773 6.38104 15.8739 6.37861 15.8704 6.3761C15.7562 6.29502 15.7562 6.29502 15.7458 6.28764C15.7389 6.28274 15.732 6.27784 15.7251 6.27293C15.7076 6.26048 15.6901 6.24803 15.6726 6.23557C15.6413 6.21335 15.6101 6.19115 15.5787 6.16914C15.5437 6.14461 15.5089 6.11984 15.474 6.09508C15.4567 6.08271 15.4393 6.07036 15.4219 6.058C15.4149 6.05309 15.408 6.04818 15.4011 6.04326C15.3977 6.04083 15.3943 6.0384 15.3907 6.03589C15.2766 5.95481 15.2766 5.95481 15.2662 5.94743C15.2593 5.94253 15.2524 5.93762 15.2455 5.93272C15.228 5.92027 15.2104 5.90782 15.1929 5.89536C15.1617 5.87314 15.1304 5.85094 15.099 5.82893C15.0641 5.80439 15.0292 5.77963 14.9944 5.75487C14.977 5.7425 14.9596 5.73015 14.9422 5.71779C14.9353 5.71288 14.9284 5.70796 14.9215 5.70305C14.9181 5.70062 14.9146 5.69818 14.9111 5.69568C14.797 5.61459 14.797 5.61459 14.7866 5.60722C14.7797 5.60231 14.7728 5.59741 14.7659 5.59251C14.7484 5.58006 14.7308 5.5676 14.7133 5.55514C14.6821 5.53293 14.6508 5.51073 14.6194 5.48871C14.5844 5.46418 14.5496 5.43942 14.5148 5.41465C14.4974 5.40229 14.48 5.38993 14.4626 5.37758C14.4557 5.37266 14.4488 5.36775 14.4419 5.36283C14.4384 5.3604 14.435 5.35797 14.4315 5.35546C14.3173 5.27438 14.3173 5.27438 14.307 5.267C14.3001 5.2621 14.2932 5.2572 14.2863 5.25229C14.2687 5.23985 14.2512 5.22739 14.2337 5.21493C14.2024 5.19271 14.1712 5.17051 14.1398 5.1485C14.1048 5.12397 14.07 5.0992 14.0352 5.07444C14.0178 5.06207 14.0004 5.04972 13.983 5.03736C13.9761 5.03245 13.9692 5.02754 13.9622 5.02262C13.9588 5.02019 13.9554 5.01776 13.9519 5.01525C13.8377 4.93417 13.8377 4.93417 13.8273 4.92679C13.8204 4.92189 13.8135 4.91698 13.8066 4.91208C13.7891 4.89963 13.7716 4.88718 13.7541 4.87472C13.7113 4.84426 13.7113 4.84426 13.6684 4.81409C13.6607 4.80869 13.6532 4.80309 13.6457 4.79748C13.6333 4.78859 13.6212 4.78259 13.6069 4.77688C13.5806 4.76491 13.5603 4.75126 13.5449 4.72664C13.5294 4.67287 13.5338 4.61405 13.5347 4.55872C13.535 4.53509 13.5348 4.51147 13.5347 4.48785C13.5345 4.44647 13.5347 4.40509 13.535 4.3637C13.5355 4.30217 13.5355 4.24064 13.5354 4.1791C13.5353 4.07558 13.5356 3.97207 13.5361 3.86856C13.5366 3.76607 13.5369 3.66358 13.537 3.56108C13.537 3.5579 13.537 3.55471 13.537 3.55143C13.537 3.52235 13.5371 3.49326 13.5371 3.46417C13.5371 3.39187 13.5372 3.31956 13.5373 3.24726C13.5373 3.24397 13.5373 3.24067 13.5373 3.23728C13.5375 3.07718 13.5381 2.91709 13.5386 2.75699C13.5388 2.70144 13.539 2.6459 13.5392 2.59035C13.5392 2.5869 13.5392 2.58346 13.5392 2.57991C13.5397 2.41971 13.5401 2.25951 13.5403 2.09931C13.5403 2.08891 13.5403 2.07851 13.5404 2.06811C13.5405 1.99917 13.5406 1.93024 13.5407 1.8613C13.5409 1.72414 13.5411 1.58698 13.5414 1.44982C13.5414 1.44329 13.5414 1.43676 13.5414 1.43023C13.5421 1.04021 13.5432 0.650188 13.5449 0.126953Z" fill="var(--fill-0, white)"/>
<path id="Vector_6" d="M35.8055 4.7267C35.8055 7.32688 35.8055 9.92706 35.8055 12.606C32.1938 12.6114 32.1938 12.6114 30.9632 12.6106C30.962 12.2118 30.9608 11.8131 30.96 11.3388C30.96 11.3325 30.96 11.3262 30.96 11.3198C30.9598 11.1868 30.9596 11.0539 30.9594 10.9209C30.9593 10.8541 30.9592 10.7873 30.9591 10.7205C30.9591 10.7104 30.9591 10.7003 30.9591 10.6902C30.9589 10.5351 30.9586 10.3799 30.9581 10.2247C30.9581 10.2214 30.9581 10.2181 30.9581 10.2146C30.9579 10.1608 30.9577 10.1071 30.9576 10.0533C30.9571 9.89834 30.9566 9.74342 30.9564 9.58849C30.9564 9.58531 30.9564 9.58212 30.9564 9.57884C30.9564 9.50889 30.9563 9.43894 30.9562 9.36899C30.9562 9.34085 30.9562 9.3127 30.9562 9.28456C30.9562 9.28148 30.9562 9.2784 30.9562 9.27523C30.9561 9.17599 30.9558 9.07676 30.9553 8.97753C30.9549 8.87478 30.9547 8.77203 30.9548 8.66928C30.9549 8.61003 30.9547 8.55078 30.9543 8.49153C30.954 8.45197 30.954 8.41241 30.9542 8.37284C30.9543 8.35028 30.9543 8.32774 30.954 8.30519C30.952 8.16424 30.952 8.16424 30.9794 8.13373C30.9944 8.12099 31.0101 8.11234 31.0285 8.10511C31.0397 8.10047 31.0488 8.09385 31.0584 8.08646C31.0641 8.08252 31.0698 8.07859 31.0756 8.07468C31.1133 8.04869 31.1506 8.02222 31.1879 7.99565C31.2052 7.98332 31.2226 7.97102 31.2399 7.95872C31.2468 7.95381 31.2537 7.94889 31.2606 7.94398C31.3575 7.87518 31.4543 7.80638 31.5512 7.73758C31.5546 7.73515 31.558 7.73271 31.5615 7.73021C31.5685 7.7253 31.5754 7.7204 31.5823 7.7155C31.5998 7.70305 31.6173 7.69059 31.6348 7.67813C31.6686 7.65409 31.7025 7.63009 31.7365 7.60627C31.7689 7.58353 31.8011 7.56058 31.8333 7.53764C31.8507 7.52528 31.8681 7.51292 31.8855 7.50057C31.8924 7.49565 31.8994 7.49074 31.9063 7.48582C31.9478 7.45634 31.9893 7.42685 32.0308 7.39737C32.0342 7.39494 32.0376 7.3925 32.0412 7.38999C32.0481 7.38509 32.055 7.38019 32.0619 7.37528C32.0794 7.36283 32.0969 7.35038 32.1144 7.33792C32.1483 7.31387 32.1821 7.28988 32.2161 7.26605C32.2485 7.24332 32.2807 7.22036 32.313 7.19743C32.3303 7.18506 32.3477 7.17271 32.3651 7.16035C32.3721 7.15544 32.379 7.15053 32.3859 7.14561C32.4274 7.11613 32.4689 7.08664 32.5104 7.05716C32.5138 7.05472 32.5173 7.05229 32.5208 7.04978C32.5277 7.04488 32.5346 7.03997 32.5415 7.03507C32.559 7.02262 32.5766 7.01017 32.5941 6.99771C32.6279 6.97366 32.6617 6.94966 32.6957 6.92584C32.7281 6.90311 32.7603 6.88015 32.7926 6.85722C32.81 6.84485 32.8274 6.8325 32.8448 6.82014C32.8517 6.81523 32.8586 6.81031 32.8655 6.8054C32.9347 6.75626 33.0039 6.70711 33.073 6.65797C33.0765 6.65554 33.0799 6.6531 33.0834 6.6506C33.0903 6.64569 33.0972 6.64079 33.1041 6.63589C33.1217 6.62344 33.1392 6.61098 33.1567 6.59852C33.1905 6.57448 33.2244 6.55048 33.2583 6.52666C33.2907 6.50392 33.323 6.48097 33.3552 6.45803C33.3726 6.44567 33.39 6.43331 33.4074 6.42096C33.4143 6.41604 33.4212 6.41113 33.4281 6.40621C33.4696 6.37673 33.5112 6.34724 33.5527 6.31776C33.5578 6.31411 33.5578 6.31411 33.563 6.31038C33.5699 6.30548 33.5768 6.30058 33.5837 6.29567C33.6013 6.28323 33.6188 6.27077 33.6363 6.25831C33.6701 6.23426 33.704 6.21027 33.738 6.18644C33.7704 6.16371 33.8026 6.14075 33.8348 6.11782C33.8522 6.10545 33.8696 6.0931 33.887 6.08074C33.8939 6.07583 33.9008 6.07092 33.9078 6.066C33.9493 6.03652 33.9908 6.00703 34.0323 5.97755C34.0374 5.9739 34.0374 5.9739 34.0427 5.97017C34.0496 5.96527 34.0565 5.96036 34.0634 5.95546C34.0809 5.94301 34.0984 5.93056 34.1159 5.9181C34.1498 5.89405 34.1836 5.87005 34.2176 5.84623C34.25 5.8235 34.2822 5.80054 34.3145 5.77761C34.3318 5.76524 34.3492 5.75289 34.3666 5.74053C34.3735 5.73562 34.3805 5.7307 34.3874 5.72579C34.4289 5.6963 34.4704 5.66682 34.5119 5.63733C34.517 5.63368 34.517 5.63368 34.5223 5.62996C34.5292 5.62505 34.5361 5.62015 34.543 5.61525C34.5605 5.6028 34.578 5.59034 34.5956 5.57788C34.6294 5.55384 34.6632 5.52984 34.6972 5.50602C34.7296 5.48328 34.7618 5.46033 34.7941 5.43739C34.8115 5.42503 34.8289 5.41267 34.8463 5.40032C34.8532 5.3954 34.8601 5.39049 34.867 5.38557C34.9085 5.35609 34.95 5.3266 34.9915 5.29712C34.9949 5.29469 34.9984 5.29225 35.0019 5.28974C35.0088 5.28484 35.0157 5.27994 35.0226 5.27504C35.0401 5.26259 35.0577 5.25013 35.0752 5.23767C35.109 5.21362 35.1428 5.18963 35.1768 5.1658C35.2092 5.14307 35.2414 5.12011 35.2737 5.09718C35.2911 5.08481 35.3085 5.07246 35.3259 5.0601C35.3328 5.05519 35.3397 5.05028 35.3466 5.04536C35.3881 5.01588 35.4296 4.98639 35.4711 4.95691C35.4763 4.95326 35.4763 4.95326 35.4815 4.94953C35.4884 4.94463 35.4953 4.93972 35.5022 4.93482C35.5198 4.92237 35.5373 4.90992 35.5548 4.89746C35.5886 4.87344 35.6224 4.84946 35.6563 4.82567C35.6826 4.80723 35.7088 4.78864 35.7349 4.77003C35.7415 4.76536 35.748 4.7607 35.7546 4.75605C35.7609 4.75159 35.7671 4.74711 35.7733 4.74258C35.7953 4.7267 35.7953 4.7267 35.8055 4.7267Z" fill="var(--fill-0, white)"/>
<path id="Vector_7" d="M66.5398 16.3787C66.547 16.3787 66.547 16.3787 66.5543 16.3787C66.9015 16.3797 67.2689 16.46 67.5434 16.6795C67.5482 16.6833 67.5529 16.687 67.5577 16.6909C67.5663 16.6978 67.5749 16.7047 67.5834 16.7117C67.593 16.7194 67.6027 16.7267 67.6126 16.734C67.6106 16.754 67.5967 16.7655 67.5832 16.7793C67.5782 16.7846 67.5731 16.7899 67.568 16.7951C67.5642 16.7991 67.5642 16.7991 67.5602 16.8032C67.5488 16.815 67.5376 16.8271 67.5264 16.8391C67.5243 16.8414 67.5222 16.8436 67.5201 16.846C67.5071 16.8599 67.4943 16.8739 67.4815 16.8879C67.4609 16.9104 67.44 16.9327 67.4191 16.9549C67.3996 16.9757 67.3801 16.9966 67.3607 17.0175C67.3542 17.0244 67.3478 17.0313 67.3414 17.0382C67.3219 17.0591 67.3024 17.08 67.2832 17.1011C67.2626 17.1236 67.2417 17.1459 67.2208 17.1681C67.2075 17.1822 67.1943 17.1964 67.1811 17.2105C67.177 17.2149 67.1729 17.2194 67.1687 17.2239C67.1599 17.2333 67.1512 17.2427 67.1424 17.2522C67.139 17.2558 67.139 17.2558 67.1356 17.2595C67.1294 17.2662 67.1231 17.273 67.1169 17.2797C67.1056 17.2916 67.094 17.3031 67.0823 17.3146C67.0797 17.3116 67.0771 17.3085 67.0744 17.3054C66.9517 17.1666 66.7587 17.1011 66.5758 17.0883C66.4164 17.0793 66.2359 17.1111 66.1126 17.2168C66.1053 17.2236 66.098 17.2305 66.0907 17.2375C66.0878 17.2403 66.0849 17.243 66.0818 17.2459C66.0286 17.3004 66.0099 17.3738 66.0107 17.4473C66.0131 17.5202 66.0361 17.5869 66.0885 17.6399C66.1334 17.6806 66.1844 17.709 66.2383 17.7364C66.2415 17.7381 66.2446 17.7397 66.2478 17.7413C66.398 17.817 66.57 17.8586 66.7313 17.9049C67.0459 17.9951 67.3583 18.125 67.525 18.4206C67.5605 18.4845 67.5822 18.5502 67.5976 18.6213C67.5985 18.6255 67.5995 18.6297 67.6004 18.6341C67.616 18.7107 67.6189 18.7858 67.6187 18.8637C67.6187 18.8687 67.6186 18.8738 67.6186 18.8789C67.6184 18.951 67.6175 19.0218 67.6034 19.0928C67.6025 19.0975 67.6016 19.1022 67.6006 19.107C67.5505 19.3564 67.4115 19.5933 67.1976 19.7414C67.1944 19.7436 67.1912 19.7458 67.1879 19.7481C66.9432 19.9159 66.641 19.9998 66.3433 20.0009C66.3376 20.001 66.3319 20.001 66.326 20.001C66.3077 20.0011 66.2895 20.0011 66.2712 20.0011C66.2681 20.0011 66.265 20.0011 66.2617 20.0011C66.1702 20.0012 66.08 20.0002 65.9893 19.9864C65.9839 19.9856 65.9785 19.9848 65.9729 19.984C65.8133 19.9607 65.6522 19.9208 65.5066 19.8509C65.4955 19.8456 65.4843 19.8404 65.4731 19.8352C65.3914 19.7967 65.3147 19.7495 65.2422 19.6961C65.2397 19.6942 65.2372 19.6924 65.2346 19.6905C65.1959 19.6621 65.1589 19.6318 65.1223 19.6008C65.1187 19.5978 65.1151 19.5947 65.1113 19.5916C65.1042 19.5856 65.0971 19.5796 65.09 19.5736C65.0927 19.5586 65.0974 19.551 65.108 19.5401C65.1121 19.5358 65.1121 19.5358 65.1163 19.5315C65.1192 19.5286 65.1222 19.5256 65.1252 19.5226C65.1311 19.5164 65.1371 19.5103 65.143 19.5041C65.1459 19.5012 65.1487 19.4983 65.1516 19.4953C65.16 19.4866 65.168 19.4777 65.1759 19.4687C65.1921 19.4502 65.209 19.4324 65.2258 19.4145C65.2433 19.3959 65.2606 19.3771 65.2778 19.3583C65.2897 19.3453 65.3017 19.3324 65.3137 19.3196C65.3291 19.303 65.3445 19.2864 65.3598 19.2697C65.3772 19.2506 65.3948 19.2317 65.4124 19.2128C65.4256 19.1987 65.4387 19.1844 65.4517 19.1702C65.4702 19.15 65.4889 19.13 65.5076 19.1101C65.5249 19.0917 65.542 19.0731 65.559 19.0544C65.5669 19.0458 65.5749 19.0372 65.583 19.0286C65.5852 19.0262 65.5875 19.0237 65.5899 19.0212C65.5943 19.0165 65.5988 19.0118 65.6032 19.0071C65.6143 18.9953 65.6247 18.9834 65.6342 18.9703C65.6508 18.9757 65.654 18.9811 65.6644 18.9947C65.6995 19.0388 65.7366 19.0768 65.7818 19.1109C65.7861 19.1143 65.7904 19.1176 65.7948 19.1211C65.9686 19.2535 66.1944 19.3135 66.4126 19.2886C66.527 19.2734 66.642 19.2393 66.7318 19.1653C66.7356 19.1624 66.7394 19.1596 66.7433 19.1566C66.7938 19.1154 66.8296 19.0477 66.8378 18.9839C66.8453 18.8918 66.8289 18.8089 66.7669 18.7364C66.5807 18.5466 66.241 18.4825 65.9936 18.4098C65.7779 18.346 65.5455 18.2358 65.399 18.0631C65.3932 18.0566 65.3932 18.0566 65.3874 18.0501C65.3367 17.9932 65.2971 17.9323 65.2652 17.8635C65.2621 17.8567 65.2621 17.8567 65.2588 17.8498C65.2286 17.7793 65.2122 17.699 65.2053 17.623C65.2048 17.618 65.2043 17.613 65.2038 17.6078C65.1803 17.3313 65.2468 17.0554 65.4258 16.8374C65.4322 16.8301 65.4386 16.8228 65.4451 16.8156C65.4481 16.8121 65.4511 16.8087 65.4543 16.8051C65.506 16.7469 65.5616 16.6936 65.625 16.6478C65.6301 16.644 65.6352 16.6402 65.6403 16.6364C65.8215 16.5034 66.0444 16.4319 66.2657 16.3974C66.2701 16.3967 66.2746 16.396 66.2791 16.3953C66.3657 16.3825 66.4524 16.3784 66.5398 16.3787Z" fill="var(--fill-0, white)"/>
<path id="Vector_8" d="M61.3545 16.4663C62.2707 16.4663 63.1868 16.4663 64.1308 16.4663C64.1308 16.6894 64.1308 16.9124 64.1308 17.1422C63.8005 17.1422 63.4703 17.1422 63.13 17.1422C63.13 18.0568 63.13 18.9715 63.13 19.9138C62.8743 19.9138 62.6187 19.9138 62.3552 19.9138C62.3552 18.9992 62.3552 18.0846 62.3552 17.1422C62.025 17.1422 61.6947 17.1422 61.3545 17.1422C61.3545 16.9192 61.3545 16.6961 61.3545 16.4663Z" fill="var(--fill-0, white)"/>
<path id="Vector_9" d="M58.3202 16.4662C58.5759 16.4662 58.8316 16.4662 59.095 16.4662C59.095 17.3719 59.095 18.2775 59.095 19.2106C59.5668 19.2106 60.0386 19.2106 60.5246 19.2106C60.5246 19.4427 60.5246 19.6747 60.5246 19.9137C59.7972 19.9137 59.0697 19.9137 58.3202 19.9137C58.3202 18.7761 58.3202 17.6384 58.3202 16.4662Z" fill="var(--fill-0, white)"/>
</g>
<defs>
<clipPath id="clip0_0_168">
<rect width="68" height="20" fill="white"/>
</clipPath>
</defs>
</svg>
