<svg preserveAspectRatio="none" width="100%" height="100%" overflow="visible" style="display: block;" viewBox="0 0 113.999 36.001" fill="none" xmlns="http://www.w3.org/2000/svg">
<g id="Group">
<path id="Vector" d="M58.363 29.4887C58.1004 29.2123 57.7878 28.9937 57.4242 28.8329C57.0606 28.6731 56.6383 28.5922 56.1584 28.5922C55.6784 28.5922 55.2196 28.6837 54.8262 28.8657C54.4338 29.0477 54.1009 29.2922 53.8278 29.5975C53.5556 29.9037 53.3459 30.2581 53.1997 30.6625C53.0535 31.0669 52.9813 31.4916 52.9813 31.9355C52.9813 32.3794 53.0535 32.804 53.1997 33.2085C53.3449 33.6129 53.5546 33.9682 53.8278 34.2744C54.1009 34.5806 54.4338 34.8243 54.8262 35.0063C55.2196 35.1883 55.663 35.2797 56.1584 35.2797C56.5585 35.2797 56.9423 35.2306 57.3097 35.1324C57.6772 35.0342 58.0061 34.9013 58.2976 34.7338V32.1444H56.4527V31.4232H59.0824V35.2143C58.6458 35.4694 58.1677 35.6639 57.6473 35.7988C57.127 35.9336 56.6307 36.001 56.1574 36.001C55.5832 36.001 55.0493 35.8989 54.5588 35.6948C54.0682 35.4906 53.6421 35.2085 53.2814 34.8483C52.9217 34.4872 52.6399 34.0597 52.436 33.5648C52.2321 33.0698 52.1301 32.5267 52.1301 31.9374C52.1301 31.3481 52.2321 30.805 52.436 30.3101C52.6399 29.8151 52.9217 29.3866 53.2814 29.0265C53.6412 28.6654 54.0673 28.3842 54.5588 28.1801C55.0493 27.9759 55.5832 27.8739 56.1574 27.8739C56.7759 27.8739 57.3088 27.9596 57.756 28.131C58.2033 28.3024 58.6015 28.5624 58.9507 28.9119L58.362 29.4916L58.363 29.4887Z" fill="var(--fill-0, white)"/>
<path id="Vector_2" d="M68.5741 31.4887H69.9707C70.3199 31.4887 70.6161 31.4521 70.8605 31.3789C71.1038 31.3057 71.2981 31.2094 71.4443 31.0891C71.5895 30.9687 71.6953 30.8272 71.7608 30.6635C71.8262 30.4998 71.8589 30.3235 71.8589 30.1338C71.8589 29.9442 71.8262 29.7785 71.7608 29.6148C71.6953 29.4511 71.5895 29.3077 71.4443 29.1834C71.2981 29.0592 71.1038 28.9629 70.8605 28.8936C70.6161 28.8243 70.3199 28.7896 69.9707 28.7896H68.5741V31.4887ZM68.5741 35.8045H67.7883V28.0693H70.1669C70.9528 28.0693 71.5732 28.2407 72.0282 28.5826C72.4831 28.9244 72.7101 29.4415 72.7101 30.1338C72.7101 30.6731 72.5408 31.1266 72.2023 31.4945C71.8637 31.8623 71.375 32.0751 70.7344 32.1339L72.9612 35.8045H72.0012L69.8842 32.2099H68.5751V35.8045H68.5741Z" fill="var(--fill-0, white)"/>
<path id="Vector_3" d="M87.1371 31.9364C87.1371 31.4925 87.064 31.0679 86.9188 30.6635C86.7735 30.259 86.5638 29.9047 86.2907 29.5985C86.0184 29.2922 85.6847 29.0486 85.2922 28.8666C84.8988 28.6846 84.4554 28.5941 83.9601 28.5941C83.4647 28.5941 83.0213 28.6856 82.6288 28.8666C82.2354 29.0486 81.9026 29.2932 81.6304 29.5985C81.3582 29.9047 81.1485 30.259 81.0033 30.6635C80.8571 31.0679 80.7849 31.4925 80.7849 31.9364C80.7849 32.3804 80.8571 32.805 81.0033 33.2094C81.1485 33.6139 81.3582 33.9682 81.6304 34.2744C81.9036 34.5806 82.2354 34.8243 82.6288 35.0063C83.0213 35.1883 83.4657 35.2797 83.9601 35.2797C84.4545 35.2797 84.8988 35.1883 85.2922 35.0063C85.6847 34.8243 86.0184 34.5806 86.2907 34.2744C86.5638 33.9682 86.7725 33.6139 86.9188 33.2094C87.064 32.805 87.1371 32.3813 87.1371 31.9364ZM87.9874 31.9364C87.9874 32.5267 87.8854 33.0688 87.6815 33.5638C87.4776 34.0597 87.1958 34.4872 86.836 34.8474C86.4763 35.2085 86.0502 35.4906 85.5596 35.6938C85.0681 35.8979 84.5353 36 83.9601 36C83.3849 36 82.852 35.8979 82.3614 35.6938C81.8709 35.4897 81.4448 35.2075 81.0841 34.8474C80.7243 34.4872 80.4416 34.0587 80.2386 33.5638C80.0347 33.0688 79.9327 32.5258 79.9327 31.9364C79.9327 31.3471 80.0347 30.804 80.2386 30.3091C80.4425 29.8142 80.7243 29.3857 81.0841 29.0255C81.4448 28.6654 81.8699 28.3832 82.3614 28.1791C82.852 27.975 83.3849 27.8729 83.9601 27.8729C84.5353 27.8729 85.0681 27.975 85.5596 28.1791C86.0502 28.3832 86.4763 28.6654 86.836 29.0255C87.1967 29.3857 87.4776 29.8142 87.6815 30.3091C87.8854 30.804 87.9874 31.3471 87.9874 31.9364Z" fill="var(--fill-0, white)"/>
<path id="Vector_4" d="M100.372 32.9196C100.372 33.2403 100.334 33.5802 100.258 33.9413C100.182 34.3014 100.038 34.6346 99.8269 34.9408C99.6163 35.247 99.3268 35.5002 98.9593 35.6996C98.5919 35.8999 98.1206 36 97.5464 36C96.9721 36 96.4912 35.8999 96.1276 35.6996C95.7631 35.4993 95.4755 35.246 95.2648 34.9408C95.0542 34.6346 94.9099 34.3014 94.8339 33.9413C94.7579 33.5802 94.7195 33.2403 94.7195 32.9196V28.0684H95.5053V32.832C95.5053 33.2037 95.5409 33.5224 95.614 33.7872C95.6861 34.053 95.7833 34.2773 95.9035 34.4593C96.0237 34.6423 96.1584 34.7857 96.3075 34.8907C96.4566 34.9966 96.6066 35.0785 96.7548 35.1363C96.9038 35.194 97.0472 35.2325 97.1857 35.2508C97.3232 35.2691 97.4435 35.2778 97.5454 35.2778C97.6397 35.2778 97.7589 35.2691 97.9003 35.2508C98.0427 35.2325 98.1879 35.194 98.337 35.1363C98.4861 35.0785 98.6352 34.9957 98.7843 34.8907C98.9334 34.7848 99.068 34.6413 99.1883 34.4593C99.3075 34.2773 99.4047 34.0539 99.4768 33.7872C99.5499 33.5214 99.5865 33.2027 99.5865 32.832V28.0684H100.372V32.9196Z" fill="var(--fill-0, white)"/>
<path id="Vector_5" d="M109.07 31.4887H110.336C110.685 31.4887 110.982 31.4521 111.226 31.3789C111.47 31.3057 111.665 31.2094 111.811 31.0891C111.956 30.9687 112.062 30.8272 112.127 30.6635C112.193 30.4998 112.225 30.3235 112.225 30.1338C112.225 29.9442 112.193 29.7785 112.127 29.6148C112.062 29.4511 111.956 29.3077 111.811 29.1834C111.665 29.0592 111.47 28.9629 111.226 28.8936C110.983 28.8243 110.685 28.7896 110.336 28.7896H109.07V31.4887ZM108.285 28.0684H110.532C111.318 28.0684 111.939 28.2398 112.394 28.5816C112.848 28.9234 113.076 29.4405 113.076 30.1329C113.076 30.8252 112.848 31.3442 112.394 31.6899C111.939 32.0366 111.318 32.209 110.532 32.209H109.07V35.8036H108.285V28.0684Z" fill="var(--fill-0, white)"/>
<path id="Vector_6" d="M0 0.21377V21.5185L7.29958 21.5243V13.5311L18.5418 21.5176L18.6207 13.9018L0 0.21377Z" fill="var(--fill-0, white)"/>
<path id="Vector_7" d="M51.9108 13.9114V21.5079L60.0222 21.5022V8.05489L51.9108 13.9114Z" fill="var(--fill-0, white)"/>
<path id="Vector_8" d="M41.3668 13.9085L22.7115 0.214733V8.05489L41.3668 21.5243V13.9085Z" fill="var(--fill-0, white)"/>
<path id="Vector_9" d="M41.3668 13.9085L60.0222 0.214733V8.05489L41.3668 21.5243V13.9085Z" fill="var(--fill-0, #1AAAE2)"/>
<path id="Vector_10" d="M75.36 16.6095H73.6556V5.95185H75.3177C79.2537 5.95185 81.4255 7.48772 81.4255 11.2807C81.4255 15.0737 79.2527 16.6095 75.3591 16.6095M84.1707 3.00819C81.7997 1.21329 78.2466 0.21377 74.0567 0.21377H66.2868V21.5272H73.9865C78.0186 21.5272 81.4025 20.7626 84.1351 18.6933C86.6177 16.8089 87.8748 14.079 87.8748 10.9803C87.8748 7.88156 86.6514 4.90997 84.1707 3.00819Z" fill="var(--fill-0, white)"/>
<path id="Vector_11" d="M110.025 14.4516C108.893 15.7342 107.161 16.5537 105.221 16.5537C101.811 16.5537 99.0478 14.0241 99.0478 10.9032C99.0478 7.78238 101.811 5.25181 105.221 5.25181C107.116 5.25181 108.812 6.03467 109.943 7.26529L113.984 3.2287C111.892 1.52143 108.784 0.052961 104.874 0.052961L104.889 0C101.371 0 98.3495 1.06692 95.8275 3.2027C93.3142 5.34617 92.058 7.91045 92.058 10.8965C92.058 13.8825 93.3151 16.4506 95.8275 18.5768C98.3303 20.6769 101.351 21.7304 104.889 21.739C108.839 21.739 111.921 20.3187 113.999 18.5768L110.024 14.4506L110.025 14.4516Z" fill="var(--fill-0, white)"/>
</g>
</svg>
