<svg width="114" height="36" viewBox="0 0 114 36" fill="none" xmlns="http://www.w3.org/2000/svg">
  <path d="M0 0.21377V21.5185L7.29958 21.5243V13.5311L18.5418 21.5176L18.6207 13.9018L0 0.21377Z" fill="white"/>
  <path d="M51.9108 13.9114V21.5079L60.0222 21.5022V8.05489L51.9108 13.9114Z" fill="white"/>
  <path d="M41.3668 13.9085L22.7115 0.214733V8.05489L41.3668 21.5243V13.9085Z" fill="white"/>
  <path d="M41.3668 13.9085L60.0222 0.214733V8.05489L41.3668 21.5243V13.9085Z" fill="#F58B1F"/>
  <path d="M75.36 16.6095H73.6556V5.95185H75.3177C79.2537 5.95185 81.4255 7.48772 81.4255 11.2807C81.4255 15.0737 79.2527 16.6095 75.3591 16.6095M84.1707 3.00819C81.7997 1.21329 78.2466 0.21377 74.0567 0.21377H66.2868V21.5272H73.9865C78.0186 21.5272 81.4025 20.7626 84.1351 18.6933C86.6177 16.8089 87.8748 14.079 87.8748 10.9803C87.8748 7.88156 86.6514 4.90997 84.1707 3.00819Z" fill="white"/>
  <path d="M110.025 14.4516C108.893 15.7342 107.161 16.5537 105.221 16.5537C101.811 16.5537 99.0478 14.0241 99.0478 10.9032C99.0478 7.78238 101.811 5.25181 105.221 5.25181C107.116 5.25181 108.812 6.03467 109.943 7.26529L113.984 3.2287C111.892 1.52143 108.784 0.052961 104.874 0.052961L104.889 0C101.371 0 98.3495 1.06692 95.8275 3.2027C93.3142 5.34617 92.058 7.91045 92.058 10.8965C92.058 13.8825 93.3151 16.4506 95.8275 18.5768C98.3303 20.6769 101.351 21.7304 104.889 21.739C108.839 21.739 111.921 20.3187 113.999 18.5768L110.024 14.4506L110.025 14.4516Z" fill="white"/>
  <text x="55" y="33.2" text-anchor="middle" fill="white" font-family="Arial, Helvetica, sans-serif" font-size="4.7" font-weight="700" letter-spacing="1.25">ENGINEERING</text>
</svg>
